<svg width="24" height="24" viewBox="0 0 24 24" fill="none" xmlns="http://www.w3.org/2000/svg">
<path fill-rule="evenodd" clip-rule="evenodd" d="M6.14994 0H14.1739L20.9745 7.08846V20.8756C20.9745 22.6027 19.5772 24 17.8561 24H6.14994C4.42281 24 3.02551 22.6027 3.02551 20.8756V3.12443C3.02548 1.3973 4.42278 0 6.14994 0Z" fill="#53C26F"/>
<path d="M8.38742 17.7024C8.01617 17.7024 7.69563 17.6216 7.42578 17.46C7.15766 17.2985 6.95055 17.0725 6.80445 16.782C6.66008 16.4915 6.58789 16.1538 6.58789 15.7688C6.58789 15.3838 6.66008 15.0461 6.80445 14.7556C6.95055 14.4651 7.15766 14.2391 7.42578 14.0775C7.69563 13.916 8.01617 13.8352 8.38742 13.8352C8.81367 13.8352 9.17117 13.9409 9.45992 14.1523C9.75039 14.3637 9.95492 14.6499 10.0735 15.0108L9.36711 15.2068C9.29836 14.9816 9.18234 14.8072 9.01906 14.6834C8.85578 14.5579 8.64523 14.4952 8.38742 14.4952C8.15195 14.4952 7.95516 14.5476 7.79703 14.6525C7.64062 14.7573 7.52289 14.9051 7.44383 15.0959C7.36477 15.2867 7.32523 15.511 7.32523 15.7688C7.32523 16.0266 7.36477 16.2509 7.44383 16.4417C7.52289 16.6325 7.64062 16.7803 7.79703 16.8851C7.95516 16.99 8.15195 17.0424 8.38742 17.0424C8.64523 17.0424 8.85578 16.9797 9.01906 16.8542C9.18234 16.7287 9.29836 16.5543 9.36711 16.3308L10.0735 16.5268C9.95492 16.8877 9.75039 17.1739 9.45992 17.3853C9.17117 17.5967 8.81367 17.7024 8.38742 17.7024Z" fill="white"/>
<path d="M12.3545 17.7024C12.0795 17.7024 11.8311 17.6543 11.6094 17.558C11.3894 17.46 11.2081 17.3208 11.0654 17.1404C10.9245 16.9582 10.8351 16.7416 10.7973 16.4907L11.5295 16.3824C11.581 16.5955 11.6876 16.7597 11.8492 16.8748C12.0107 16.99 12.1946 17.0475 12.4009 17.0475C12.516 17.0475 12.6278 17.0295 12.736 16.9934C12.8443 16.9573 12.9328 16.904 13.0016 16.8336C13.072 16.7631 13.1073 16.6763 13.1073 16.5732C13.1073 16.5354 13.1013 16.4993 13.0892 16.4649C13.0789 16.4288 13.0609 16.3953 13.0351 16.3643C13.0093 16.3334 12.9724 16.3042 12.9242 16.2767C12.8778 16.2492 12.8185 16.2243 12.7463 16.2019L11.7821 15.9183C11.7099 15.8977 11.6257 15.8685 11.5295 15.8307C11.4349 15.7929 11.343 15.7387 11.2536 15.6683C11.1642 15.5978 11.0895 15.505 11.0293 15.3898C10.9709 15.2729 10.9417 15.126 10.9417 14.949C10.9417 14.6997 11.0044 14.4926 11.1299 14.3276C11.2553 14.1626 11.4229 14.0397 11.6326 13.959C11.8423 13.8782 12.0743 13.8386 12.3287 13.8404C12.5848 13.8438 12.8134 13.8876 13.0145 13.9718C13.2156 14.0561 13.384 14.179 13.5198 14.3405C13.6556 14.5004 13.7535 14.6963 13.8137 14.9283L13.0557 15.0572C13.0282 14.9369 12.9775 14.8355 12.9036 14.753C12.8297 14.6705 12.7412 14.6078 12.6381 14.5648C12.5367 14.5218 12.4301 14.4986 12.3184 14.4952C12.2084 14.4918 12.1044 14.5072 12.0064 14.5416C11.9102 14.5743 11.8311 14.6224 11.7692 14.686C11.7091 14.7496 11.679 14.8252 11.679 14.9129C11.679 14.9936 11.7039 15.0598 11.7538 15.1114C11.8036 15.1612 11.8663 15.2016 11.942 15.2325C12.0176 15.2635 12.0949 15.2893 12.174 15.3099L12.8185 15.4852C12.9148 15.511 13.0213 15.5454 13.1382 15.5883C13.2551 15.6296 13.3668 15.688 13.4734 15.7636C13.5817 15.8375 13.6702 15.9355 13.7389 16.0575C13.8094 16.1796 13.8446 16.3343 13.8446 16.5216C13.8446 16.721 13.8025 16.8954 13.7183 17.045C13.6358 17.1928 13.5241 17.3157 13.3831 17.4136C13.2422 17.5099 13.0824 17.5821 12.9036 17.6302C12.7266 17.6783 12.5435 17.7024 12.3545 17.7024Z" fill="white"/>
<path d="M15.2645 17.625L14.1301 13.9125H14.852L15.7801 16.965L16.7237 13.9125H17.4456L16.3112 17.625H15.2645Z" fill="white"/>
<path opacity="0.302" fill-rule="evenodd" clip-rule="evenodd" d="M14.168 0V7.03449H20.9746L14.168 0Z" fill="white"/>
</svg>
