<svg width="24" height="24" viewBox="0 0 24 24" fill="none" xmlns="http://www.w3.org/2000/svg">
<path fill-rule="evenodd" clip-rule="evenodd" d="M6.14994 0H14.1739L20.9745 7.08846V20.8756C20.9745 22.6027 19.5772 24 17.8561 24H6.14994C4.42281 24 3.02551 22.6027 3.02551 20.8756V3.12443C3.02548 1.3973 4.42278 0 6.14994 0Z" fill="#4E4B66"/>
<path d="M5.43604 17.6251V13.9126H6.63744C6.66666 13.9126 6.72682 13.9135 6.81791 13.9152C6.909 13.9169 6.99666 13.9229 7.08088 13.9332C7.37994 13.9693 7.63346 14.0733 7.84143 14.2452C8.04939 14.4171 8.20752 14.6353 8.3158 14.9C8.42408 15.1647 8.47822 15.4543 8.47822 15.7688C8.47822 16.0834 8.42408 16.373 8.3158 16.6377C8.20752 16.9024 8.04939 17.1206 7.84143 17.2925C7.63346 17.4644 7.37994 17.5684 7.08088 17.6045C6.99666 17.6148 6.909 17.6208 6.81791 17.6225C6.72682 17.6242 6.66666 17.6251 6.63744 17.6251H5.43604ZM6.1476 16.9651H6.63744C6.68385 16.9651 6.74658 16.9642 6.82564 16.9625C6.90471 16.9591 6.97604 16.9513 7.03963 16.9393C7.20119 16.9067 7.33268 16.831 7.43408 16.7124C7.53721 16.5938 7.61283 16.4512 7.66096 16.2845C7.7108 16.1178 7.73572 15.9459 7.73572 15.7688C7.73572 15.5832 7.70994 15.4071 7.65838 15.2403C7.60854 15.0736 7.53205 14.9327 7.42893 14.8175C7.3258 14.7024 7.19604 14.6293 7.03963 14.5984C6.97604 14.5846 6.90471 14.5769 6.82564 14.5752C6.74658 14.5735 6.68385 14.5726 6.63744 14.5726H6.1476V16.9651Z" fill="white"/>
<path d="M8.89294 17.6251L10.0273 13.9126H11.074L12.2084 17.6251H11.4865L10.4759 14.3509H10.61L9.61481 17.6251H8.89294ZM9.57356 16.8517V16.1968H11.5329V16.8517H9.57356Z" fill="white"/>
<path d="M13.3791 17.6251V14.5674H12.2086V13.9126H15.2508V14.5674H14.0804V17.6251H13.3791Z" fill="white"/>
<path d="M15.4613 17.6251L16.5957 13.9126H17.6424L18.7768 17.6251H18.0549L17.0443 14.3509H17.1783L16.1832 17.6251H15.4613ZM16.1419 16.8517V16.1968H18.1013V16.8517H16.1419Z" fill="white"/>
<path opacity="0.302" fill-rule="evenodd" clip-rule="evenodd" d="M14.168 0V7.03449H20.9746L14.168 0Z" fill="white"/>
</svg>
