<svg width="24" height="24" viewBox="0 0 24 24" fill="none" xmlns="http://www.w3.org/2000/svg">
<path fill-rule="evenodd" clip-rule="evenodd" d="M6.14994 0H14.1739L20.9745 7.08846V20.8756C20.9745 22.6027 19.5772 24 17.8561 24H6.14994C4.42281 24 3.02551 22.6027 3.02551 20.8756V3.12443C3.02548 1.3973 4.42278 0 6.14994 0Z" fill="#2A61CA"/>
<path d="M6.47522 17.625V13.9125H7.67663C7.70584 13.9125 7.766 13.9134 7.85709 13.9151C7.94819 13.9168 8.03584 13.9229 8.12006 13.9332C8.41913 13.9693 8.67264 14.0733 8.88061 14.2451C9.08858 14.417 9.2467 14.6353 9.35499 14.9C9.46327 15.1647 9.51741 15.4543 9.51741 15.7688C9.51741 16.0833 9.46327 16.3729 9.35499 16.6376C9.2467 16.9023 9.08858 17.1206 8.88061 17.2925C8.67264 17.4643 8.41913 17.5683 8.12006 17.6044C8.03584 17.6147 7.94819 17.6208 7.85709 17.6225C7.766 17.6242 7.70584 17.625 7.67663 17.625H6.47522ZM7.18678 16.965H7.67663C7.72303 16.965 7.78577 16.9642 7.86483 16.9625C7.94389 16.959 8.01522 16.9513 8.07881 16.9393C8.24038 16.9066 8.37186 16.831 8.47327 16.7124C8.57639 16.5938 8.65202 16.4511 8.70014 16.2844C8.74999 16.1177 8.77491 15.9458 8.77491 15.7688C8.77491 15.5832 8.74913 15.407 8.69756 15.2403C8.64772 15.0736 8.57124 14.9326 8.46811 14.8175C8.36499 14.7023 8.23522 14.6293 8.07881 14.5983C8.01522 14.5846 7.94389 14.5768 7.86483 14.5751C7.78577 14.5734 7.72303 14.5725 7.67663 14.5725H7.18678V16.965Z" fill="white"/>
<path d="M11.8839 17.7024C11.5127 17.7024 11.1921 17.6216 10.9223 17.46C10.6542 17.2985 10.447 17.0725 10.301 16.782C10.1566 16.4915 10.0844 16.1538 10.0844 15.7688C10.0844 15.3838 10.1566 15.0461 10.301 14.7556C10.447 14.4651 10.6542 14.2391 10.9223 14.0775C11.1921 13.916 11.5127 13.8352 11.8839 13.8352C12.2552 13.8352 12.5749 13.916 12.843 14.0775C13.1128 14.2391 13.3199 14.4651 13.4643 14.7556C13.6104 15.0461 13.6835 15.3838 13.6835 15.7688C13.6835 16.1538 13.6104 16.4915 13.4643 16.782C13.3199 17.0725 13.1128 17.2985 12.843 17.46C12.5749 17.6216 12.2552 17.7024 11.8839 17.7024ZM11.8839 17.0424C12.1194 17.0458 12.3153 16.9951 12.4717 16.8903C12.6281 16.7854 12.745 16.6368 12.8224 16.4443C12.9014 16.2518 12.941 16.0266 12.941 15.7688C12.941 15.511 12.9014 15.2875 12.8224 15.0985C12.745 14.9094 12.6281 14.7625 12.4717 14.6576C12.3153 14.5528 12.1194 14.4986 11.8839 14.4952C11.6485 14.4918 11.4525 14.5425 11.2961 14.6473C11.1397 14.7522 11.022 14.9008 10.9429 15.0933C10.8656 15.2858 10.8269 15.511 10.8269 15.7688C10.8269 16.0266 10.8656 16.25 10.9429 16.4391C11.022 16.6282 11.1397 16.7751 11.2961 16.88C11.4525 16.9848 11.6485 17.039 11.8839 17.0424Z" fill="white"/>
<path d="M15.9461 17.7024C15.5748 17.7024 15.2543 17.6216 14.9844 17.46C14.7163 17.2985 14.5092 17.0725 14.3631 16.782C14.2187 16.4915 14.1466 16.1538 14.1466 15.7688C14.1466 15.3838 14.2187 15.0461 14.3631 14.7556C14.5092 14.4651 14.7163 14.2391 14.9844 14.0775C15.2543 13.916 15.5748 13.8352 15.9461 13.8352C16.3723 13.8352 16.7298 13.9409 17.0186 14.1523C17.3091 14.3637 17.5136 14.6499 17.6322 15.0108L16.9258 15.2068C16.857 14.9816 16.741 14.8072 16.5777 14.6834C16.4144 14.5579 16.2039 14.4952 15.9461 14.4952C15.7106 14.4952 15.5138 14.5476 15.3557 14.6525C15.1993 14.7573 15.0816 14.9051 15.0025 15.0959C14.9234 15.2867 14.8839 15.511 14.8839 15.7688C14.8839 16.0266 14.9234 16.2509 15.0025 16.4417C15.0816 16.6325 15.1993 16.7803 15.3557 16.8851C15.5138 16.99 15.7106 17.0424 15.9461 17.0424C16.2039 17.0424 16.4144 16.9797 16.5777 16.8542C16.741 16.7287 16.857 16.5543 16.9258 16.3308L17.6322 16.5268C17.5136 16.8877 17.3091 17.1739 17.0186 17.3853C16.7298 17.5967 16.3723 17.7024 15.9461 17.7024Z" fill="white"/>
<path opacity="0.302" fill-rule="evenodd" clip-rule="evenodd" d="M14.168 0V7.03449H20.9746L14.168 0Z" fill="white"/>
</svg>
