<svg width="24" height="24" viewBox="0 0 24 24" fill="none" xmlns="http://www.w3.org/2000/svg">
<path fill-rule="evenodd" clip-rule="evenodd" d="M6.14994 0H14.1739L20.9745 7.08846V20.8756C20.9745 22.6027 19.5772 24 17.8561 24H6.14994C4.42281 24 3.02551 22.6027 3.02551 20.8756V3.12443C3.02548 1.3973 4.42278 0 6.14994 0Z" fill="#E5252A"/>
<path d="M7.30859 17.6251V13.9126H8.87609C8.91219 13.9126 8.96031 13.9143 9.02047 13.9178C9.08234 13.9195 9.13734 13.9246 9.18547 13.9332C9.40719 13.9676 9.58852 14.0406 9.72945 14.1524C9.87211 14.2641 9.97695 14.405 10.044 14.5752C10.111 14.7436 10.1445 14.9318 10.1445 15.1398C10.1445 15.3478 10.1102 15.5368 10.0414 15.707C9.97438 15.8754 9.86953 16.0155 9.72688 16.1272C9.58594 16.2389 9.40547 16.312 9.18547 16.3463C9.13734 16.3532 9.08234 16.3584 9.02047 16.3618C8.95859 16.3653 8.91047 16.367 8.87609 16.367H8.00984V17.6251H7.30859ZM8.00984 15.7121H8.84516C8.88125 15.7121 8.92078 15.7104 8.96375 15.707C9.00672 15.7035 9.04625 15.6967 9.08234 15.6863C9.17688 15.6606 9.24992 15.6176 9.30148 15.5574C9.35305 15.4956 9.38828 15.4277 9.40719 15.3538C9.42781 15.2781 9.43813 15.2068 9.43813 15.1398C9.43813 15.0728 9.42781 15.0023 9.40719 14.9284C9.38828 14.8528 9.35305 14.7849 9.30148 14.7247C9.24992 14.6628 9.17688 14.619 9.08234 14.5932C9.04625 14.5829 9.00672 14.576 8.96375 14.5726C8.92078 14.5692 8.88125 14.5674 8.84516 14.5674H8.00984V15.7121Z" fill="white"/>
<path d="M10.8169 17.6251V13.9126H12.0183C12.0475 13.9126 12.1076 13.9135 12.1987 13.9152C12.2898 13.9169 12.3775 13.9229 12.4617 13.9332C12.7608 13.9693 13.0143 14.0733 13.2222 14.2452C13.4302 14.4171 13.5883 14.6353 13.6966 14.9C13.8049 15.1647 13.859 15.4543 13.859 15.7688C13.859 16.0834 13.8049 16.373 13.6966 16.6377C13.5883 16.9024 13.4302 17.1206 13.2222 17.2925C13.0143 17.4644 12.7608 17.5684 12.4617 17.6045C12.3775 17.6148 12.2898 17.6208 12.1987 17.6225C12.1076 17.6242 12.0475 17.6251 12.0183 17.6251H10.8169ZM11.5284 16.9651H12.0183C12.0647 16.9651 12.1274 16.9642 12.2065 16.9625C12.2855 16.9591 12.3569 16.9513 12.4205 16.9393C12.582 16.9067 12.7135 16.831 12.8149 16.7124C12.918 16.5938 12.9937 16.4512 13.0418 16.2845C13.0916 16.1178 13.1165 15.9459 13.1165 15.7688C13.1165 15.5832 13.0908 15.4071 13.0392 15.2403C12.9894 15.0736 12.9129 14.9327 12.8097 14.8175C12.7066 14.7024 12.5769 14.6293 12.4205 14.5984C12.3569 14.5846 12.2855 14.5769 12.2065 14.5752C12.1274 14.5735 12.0647 14.5726 12.0183 14.5726H11.5284V16.9651Z" fill="white"/>
<path d="M14.6323 17.6251V13.9126H16.901V14.6138H15.3335V15.4182H16.5917V16.1195H15.3335V17.6251H14.6323Z" fill="white"/>
<path opacity="0.302" fill-rule="evenodd" clip-rule="evenodd" d="M14.168 0V7.03449H20.9746L14.168 0Z" fill="white"/>
</svg>
