<svg width="24" height="24" viewBox="0 0 24 24" fill="none" xmlns="http://www.w3.org/2000/svg">
<path fill-rule="evenodd" clip-rule="evenodd" d="M6.14994 0H14.1739L20.9745 7.08846V20.8756C20.9745 22.6027 19.5772 24 17.8561 24H6.14994C4.42281 24 3.02551 22.6027 3.02551 20.8756V3.12443C3.02548 1.3973 4.42278 0 6.14994 0Z" fill="#317141"/>
<path d="M6.99329 17.6251L8.2411 15.7482L7.02938 13.9126H7.89047L8.67938 15.1501L9.45797 13.9126H10.3242L9.1125 15.7482L10.3552 17.6251H9.49407L8.67938 16.3463L7.85954 17.6251H6.99329Z" fill="white"/>
<path d="M10.9733 17.6251V13.9126H11.6745V16.9702H13.273V17.6251H10.9733Z" fill="white"/>
<path d="M15.2685 17.7024C14.9935 17.7024 14.7451 17.6543 14.5234 17.558C14.3034 17.4601 14.1221 17.3209 13.9794 17.1404C13.8385 16.9582 13.7491 16.7416 13.7113 16.4907L14.4435 16.3824C14.4951 16.5955 14.6016 16.7597 14.7632 16.8748C14.9248 16.99 15.1087 17.0476 15.3149 17.0476C15.4301 17.0476 15.5418 17.0295 15.6501 16.9934C15.7583 16.9573 15.8469 16.9041 15.9156 16.8336C15.9861 16.7631 16.0213 16.6763 16.0213 16.5732C16.0213 16.5354 16.0153 16.4993 16.0033 16.4649C15.993 16.4288 15.9749 16.3953 15.9491 16.3644C15.9233 16.3334 15.8864 16.3042 15.8383 16.2767C15.7919 16.2492 15.7326 16.2243 15.6604 16.2019L14.6962 15.9184C14.624 15.8977 14.5398 15.8685 14.4435 15.8307C14.349 15.7929 14.257 15.7387 14.1676 15.6683C14.0783 15.5978 14.0035 15.505 13.9433 15.3898C13.8849 15.273 13.8557 15.126 13.8557 14.949C13.8557 14.6998 13.9184 14.4927 14.0439 14.3277C14.1694 14.1627 14.3369 14.0398 14.5466 13.959C14.7563 13.8782 14.9883 13.8387 15.2427 13.8404C15.4988 13.8438 15.7274 13.8877 15.9285 13.9719C16.1296 14.0561 16.298 14.179 16.4338 14.3405C16.5696 14.5004 16.6676 14.6963 16.7277 14.9284L15.9698 15.0573C15.9423 14.9369 15.8916 14.8355 15.8176 14.753C15.7437 14.6705 15.6552 14.6078 15.5521 14.5648C15.4507 14.5219 15.3441 14.4987 15.2324 14.4952C15.1224 14.4918 15.0184 14.5073 14.9205 14.5416C14.8242 14.5743 14.7451 14.6224 14.6833 14.686C14.6231 14.7496 14.593 14.8252 14.593 14.9129C14.593 14.9937 14.618 15.0598 14.6678 15.1114C14.7176 15.1612 14.7804 15.2016 14.856 15.2326C14.9316 15.2635 15.009 15.2893 15.088 15.3099L15.7326 15.4852C15.8288 15.511 15.9354 15.5454 16.0523 15.5884C16.1691 15.6296 16.2808 15.688 16.3874 15.7637C16.4957 15.8376 16.5842 15.9355 16.653 16.0576C16.7234 16.1796 16.7587 16.3343 16.7587 16.5216C16.7587 16.721 16.7165 16.8955 16.6323 17.045C16.5498 17.1928 16.4381 17.3157 16.2972 17.4137C16.1562 17.5099 15.9964 17.5821 15.8176 17.6302C15.6406 17.6784 15.4576 17.7024 15.2685 17.7024Z" fill="white"/>
<path opacity="0.302" fill-rule="evenodd" clip-rule="evenodd" d="M14.168 0V7.03449H20.9746L14.168 0Z" fill="white"/>
</svg>
