<svg id="svg" version="1.1" xmlns="http://www.w3.org/2000/svg" xmlns:xlink="http://www.w3.org/1999/xlink" width="400" height="400" viewBox="0, 0, 400,400"><g id="svgg"><path id="path0" d="M197.600 44.915 C 197.600 45.297,197.252 46.372,196.827 47.304 C 196.402 48.237,195.755 50.170,195.390 51.600 C 195.024 53.030,194.587 54.560,194.418 55.000 C 193.754 56.730,193.200 58.688,193.200 59.306 C 193.200 60.915,191.794 61.200,183.811 61.206 C 174.002 61.214,173.743 61.411,178.839 65.000 C 179.776 65.660,181.639 67.010,182.979 68.000 C 184.320 68.990,185.888 70.045,186.464 70.344 C 188.440 71.370,188.682 72.485,187.636 75.726 C 186.225 80.096,185.946 80.931,185.607 81.800 C 182.178 90.592,182.509 90.598,193.953 81.933 C 197.239 79.444,199.565 79.340,201.600 81.589 C 201.930 81.953,203.325 82.940,204.700 83.783 C 206.075 84.625,207.200 85.427,207.200 85.566 C 207.200 85.705,207.830 86.157,208.600 86.572 C 209.370 86.987,210.000 87.449,210.000 87.599 C 210.000 87.843,211.767 88.800,212.219 88.800 C 212.638 88.800,212.339 87.160,211.449 84.568 C 210.926 83.046,210.009 80.180,209.411 78.200 C 208.813 76.220,208.181 74.136,208.007 73.570 C 207.570 72.150,207.919 71.693,211.188 69.400 C 214.226 67.269,219.864 63.118,220.709 62.390 C 221.850 61.408,220.462 61.200,212.750 61.200 C 204.798 61.200,203.200 60.967,203.200 59.810 C 203.200 58.816,198.879 46.048,198.228 45.119 C 197.710 44.380,197.600 44.344,197.600 44.915 M200.144 86.900 C 200.273 87.615,200.492 89.460,200.631 91.000 C 200.771 92.540,201.122 94.700,201.413 95.800 C 201.703 96.900,202.059 99.025,202.204 100.522 C 202.349 102.019,202.641 103.819,202.851 104.522 C 203.062 105.225,203.511 107.780,203.850 110.200 C 204.188 112.620,204.616 115.500,204.801 116.600 C 204.985 117.700,205.330 119.770,205.566 121.200 C 205.803 122.630,206.169 124.700,206.379 125.800 C 206.590 126.900,207.224 130.950,207.789 134.800 C 209.177 144.252,209.925 148.972,210.866 154.200 C 211.301 156.620,211.816 159.680,212.011 161.000 C 212.206 162.320,212.562 164.570,212.803 166.000 C 213.044 167.430,213.424 169.860,213.648 171.400 C 214.114 174.611,214.646 178.032,215.170 181.200 C 215.371 182.410,215.723 184.693,215.953 186.273 C 216.183 187.854,216.470 189.564,216.590 190.073 C 216.710 190.583,217.162 193.340,217.594 196.200 C 218.026 199.060,218.666 203.020,219.017 205.000 C 219.368 206.980,219.813 209.770,220.007 211.200 C 220.200 212.630,220.550 214.970,220.783 216.400 C 221.016 217.830,221.399 220.260,221.634 221.800 C 221.868 223.340,222.218 225.590,222.410 226.800 C 222.603 228.010,223.227 232.060,223.797 235.800 C 224.368 239.540,225.017 243.680,225.241 245.000 C 225.464 246.320,225.818 248.660,226.026 250.200 C 226.617 254.555,227.118 257.982,227.548 260.600 C 227.765 261.920,228.135 264.260,228.371 265.800 C 228.606 267.340,229.073 270.310,229.408 272.400 C 229.742 274.490,230.119 277.100,230.245 278.200 C 230.525 280.655,231.559 286.010,231.841 286.466 C 231.954 286.650,247.594 286.800,266.595 286.800 L 301.142 286.800 301.971 285.746 C 302.427 285.166,302.800 284.392,302.800 284.026 C 302.800 283.660,302.956 283.189,303.146 282.980 C 303.337 282.771,303.981 281.250,304.578 279.600 C 305.175 277.950,305.818 276.240,306.006 275.800 C 306.194 275.360,306.997 273.290,307.790 271.200 C 308.583 269.110,309.569 266.680,309.982 265.800 C 310.395 264.920,311.220 262.760,311.817 261.000 C 312.413 259.240,313.032 257.620,313.193 257.400 C 313.353 257.180,313.584 256.640,313.706 256.200 C 313.828 255.760,314.591 253.870,315.403 252.000 C 316.214 250.130,317.119 247.880,317.413 247.000 C 317.707 246.120,318.303 244.500,318.736 243.400 C 321.295 236.911,322.060 235.022,322.748 233.497 C 323.169 232.564,323.816 230.900,324.186 229.800 C 324.556 228.700,325.094 227.260,325.382 226.600 C 326.716 223.547,329.736 215.963,330.478 213.800 C 330.931 212.480,331.639 210.660,332.051 209.756 C 332.463 208.852,332.800 207.979,332.800 207.817 C 332.800 207.537,333.119 206.781,334.830 203.000 C 335.229 202.120,335.948 200.320,336.428 199.000 C 336.908 197.680,337.728 195.650,338.251 194.488 C 338.773 193.327,339.200 192.240,339.200 192.073 C 339.200 191.906,339.845 190.247,340.633 188.385 C 341.422 186.523,343.329 181.850,344.872 178.000 C 346.415 174.150,347.803 170.820,347.957 170.600 C 348.110 170.380,348.626 169.162,349.103 167.894 C 351.101 162.579,351.762 160.896,352.599 159.000 C 355.015 153.529,356.104 150.920,356.672 149.241 C 357.015 148.229,357.612 146.680,358.000 145.800 C 359.961 141.352,361.309 137.576,361.033 137.304 C 360.723 136.998,355.688 142.127,351.907 146.600 C 349.226 149.772,344.237 155.253,339.854 159.842 C 337.903 161.884,336.025 163.970,335.679 164.477 C 335.334 164.985,333.847 166.660,332.375 168.200 C 330.904 169.740,328.217 172.710,326.405 174.800 C 324.593 176.890,322.454 179.230,321.652 180.000 C 320.850 180.770,319.295 182.475,318.197 183.789 C 317.099 185.103,315.390 186.998,314.400 187.999 C 313.410 189.000,311.803 190.715,310.829 191.810 C 309.856 192.904,307.606 195.340,305.829 197.221 C 304.053 199.103,301.705 201.713,300.612 203.021 C 298.368 205.706,295.848 208.440,289.200 215.400 C 286.670 218.050,283.390 221.518,281.911 223.108 C 280.432 224.699,279.043 226.000,278.823 226.000 C 278.408 226.000,276.271 222.908,274.201 219.314 C 273.541 218.166,271.902 215.376,270.560 213.114 C 269.217 210.851,267.401 207.650,266.523 206.000 C 265.644 204.350,264.268 201.890,263.463 200.533 C 262.658 199.176,262.000 197.967,262.000 197.847 C 262.000 197.727,261.010 195.995,259.800 194.000 C 258.590 192.005,257.600 190.294,257.600 190.198 C 257.600 190.103,255.814 186.782,253.632 182.818 C 251.449 178.854,249.182 174.594,248.595 173.352 C 248.007 172.110,246.858 169.992,246.040 168.647 C 245.223 167.301,243.594 164.400,242.420 162.200 C 241.247 160.000,239.975 157.750,239.595 157.200 C 239.214 156.650,237.740 153.950,236.318 151.200 C 234.897 148.450,233.158 145.237,232.454 144.060 C 231.750 142.883,229.900 139.463,228.342 136.460 C 226.785 133.457,225.173 130.526,224.761 129.946 C 224.348 129.366,223.654 128.106,223.217 127.146 C 222.780 126.186,222.000 124.680,221.482 123.800 C 220.965 122.920,220.016 121.210,219.374 120.000 C 218.732 118.790,218.115 117.710,218.003 117.600 C 217.891 117.490,217.374 116.590,216.854 115.600 C 216.333 114.610,215.321 112.720,214.604 111.400 C 213.887 110.080,212.538 107.560,211.604 105.800 C 210.671 104.040,209.318 101.520,208.597 100.200 C 207.876 98.880,206.664 96.630,205.902 95.200 C 205.141 93.770,203.956 91.700,203.269 90.600 C 202.582 89.500,201.726 87.925,201.367 87.100 C 200.557 85.243,199.825 85.123,200.144 86.900 M195.300 86.293 C 195.025 86.389,194.800 86.607,194.800 86.778 C 194.800 86.949,194.061 88.419,193.157 90.045 C 192.253 91.670,190.701 94.530,189.708 96.400 C 188.714 98.270,187.450 100.610,186.898 101.600 C 186.346 102.590,184.358 106.280,182.481 109.800 C 180.605 113.320,178.675 116.740,178.193 117.400 C 177.711 118.060,175.942 121.210,174.262 124.400 C 172.581 127.590,170.943 130.650,170.620 131.200 C 170.298 131.750,168.832 134.450,167.363 137.200 C 163.338 144.737,162.493 146.265,160.068 150.400 C 158.842 152.490,157.186 155.460,156.388 157.000 C 155.590 158.540,154.484 160.610,153.931 161.600 C 153.377 162.590,151.970 165.200,150.804 167.400 C 149.638 169.600,147.835 172.840,146.797 174.600 C 145.760 176.360,143.775 179.960,142.388 182.600 C 141.001 185.240,139.482 188.030,139.014 188.800 C 138.545 189.570,137.509 191.462,136.710 193.004 C 135.911 194.546,134.659 196.826,133.929 198.071 C 133.198 199.315,132.060 201.290,131.400 202.458 C 130.740 203.626,129.739 205.396,129.175 206.391 C 128.611 207.386,126.937 210.360,125.454 213.000 C 117.009 228.035,118.041 227.431,111.860 220.955 C 105.150 213.925,100.530 208.876,99.273 207.200 C 98.696 206.430,96.762 204.270,94.975 202.400 C 93.188 200.530,89.405 196.480,86.569 193.400 C 83.732 190.320,80.121 186.450,78.544 184.800 C 76.968 183.150,74.895 180.900,73.939 179.800 C 72.982 178.700,70.670 176.175,68.800 174.188 C 66.930 172.201,64.174 169.231,62.675 167.588 C 61.177 165.945,59.780 164.420,59.572 164.200 C 59.364 163.980,58.072 162.450,56.702 160.800 C 55.332 159.150,53.097 156.630,51.736 155.200 C 50.374 153.770,48.752 151.958,48.130 151.174 C 47.509 150.389,45.266 147.869,43.147 145.574 C 41.028 143.278,38.388 140.410,37.280 139.200 C 36.173 137.990,35.137 137.129,34.979 137.287 C 34.632 137.634,35.470 139.859,38.710 147.200 C 39.147 148.190,39.634 149.450,39.793 150.000 C 39.952 150.550,40.498 151.900,41.007 153.000 C 42.153 155.476,44.810 161.967,47.801 169.600 C 49.051 172.790,50.231 175.760,50.423 176.200 C 52.113 180.068,52.800 181.745,52.800 182.001 C 52.800 182.167,53.102 182.999,53.472 183.851 C 53.841 184.703,54.447 186.210,54.817 187.200 C 55.507 189.048,57.692 194.463,58.609 196.600 C 59.551 198.795,64.400 211.189,64.400 211.400 C 64.400 211.515,64.778 212.462,65.240 213.504 C 65.702 214.547,66.224 215.760,66.401 216.200 C 66.577 216.640,68.115 220.330,69.817 224.400 C 71.519 228.470,73.044 232.250,73.206 232.800 C 73.368 233.350,74.982 237.580,76.793 242.200 C 78.603 246.820,81.351 253.840,82.900 257.800 C 84.449 261.760,86.702 267.520,87.907 270.600 C 89.112 273.680,90.411 276.920,90.793 277.800 C 91.176 278.680,91.806 280.390,92.194 281.600 C 92.582 282.810,93.270 284.475,93.723 285.300 L 94.547 286.800 129.025 286.800 C 156.122 286.800,163.590 286.693,163.911 286.300 C 164.339 285.777,165.357 280.576,165.769 276.800 C 165.902 275.590,166.265 273.070,166.577 271.200 C 167.800 263.877,169.873 249.971,170.216 246.800 C 170.347 245.590,170.709 243.250,171.022 241.600 C 171.638 238.344,172.665 231.742,173.200 227.600 C 173.385 226.170,173.752 223.920,174.016 222.600 C 174.280 221.280,174.623 219.120,174.778 217.800 C 175.188 214.314,176.372 207.151,177.223 203.000 C 177.629 201.020,178.074 198.320,178.211 197.000 C 178.349 195.680,178.633 193.880,178.844 193.000 C 179.055 192.120,179.588 189.060,180.029 186.200 C 180.470 183.340,181.196 178.840,181.642 176.200 C 182.088 173.560,182.620 169.960,182.823 168.200 C 183.027 166.440,183.452 163.650,183.768 162.000 C 184.083 160.350,184.455 157.830,184.592 156.400 C 184.730 154.970,185.000 153.260,185.192 152.600 C 185.385 151.940,185.825 149.600,186.171 147.400 C 187.413 139.496,187.639 138.140,188.404 134.000 C 188.830 131.690,189.248 128.900,189.331 127.800 C 189.415 126.700,189.778 124.090,190.139 122.000 C 191.361 114.926,192.418 109.024,193.652 102.400 C 195.725 91.260,196.268 85.958,195.300 86.293 M106.829 306.000 L 94.257 306.200 93.983 307.226 C 93.302 309.773,93.895 337.334,94.642 337.880 C 95.687 338.644,300.094 338.651,300.728 337.887 C 301.382 337.099,301.555 306.995,300.909 306.349 C 300.403 305.843,135.356 305.546,106.829 306.000 " stroke="none" fill="#9e7d3e" fill-rule="evenodd"></path><path id="path1" d="M0.000 200.000 L 0.000 400.000 200.000 400.000 L 400.000 400.000 400.000 200.000 L 400.000 0.000 200.000 0.000 L 0.000 0.000 0.000 200.000 M200.370 47.700 C 201.332 50.615,202.308 53.630,202.541 54.400 C 202.773 55.170,203.107 55.971,203.282 56.180 C 203.457 56.389,203.600 56.856,203.600 57.219 C 203.600 57.581,203.883 58.445,204.229 59.139 L 204.859 60.400 214.163 60.400 C 219.280 60.400,223.586 60.519,223.732 60.665 C 224.091 61.024,222.059 62.806,218.200 65.518 C 213.197 69.034,208.800 72.434,208.800 72.787 C 208.800 73.210,209.993 77.180,210.428 78.200 C 212.127 82.193,214.314 90.800,213.630 90.800 C 213.012 90.800,210.324 89.237,209.200 88.222 C 207.590 86.771,200.349 81.950,199.974 82.080 C 199.786 82.146,200.165 83.054,200.816 84.099 C 201.467 85.143,202.000 86.268,202.000 86.599 C 202.000 86.929,202.180 87.200,202.400 87.200 C 202.620 87.200,202.800 87.389,202.800 87.619 C 202.800 87.850,203.430 89.023,204.199 90.226 C 204.969 91.429,206.405 93.986,207.390 95.907 C 208.375 97.828,209.746 100.390,210.436 101.600 C 211.126 102.810,212.676 105.677,213.880 107.972 C 215.084 110.266,216.503 112.783,217.034 113.565 C 217.565 114.346,218.000 115.095,218.000 115.228 C 218.000 115.504,223.057 124.733,223.562 125.378 C 223.744 125.610,224.888 127.690,226.105 130.000 C 228.384 134.324,231.119 139.365,234.788 146.000 C 235.944 148.090,237.680 151.330,238.647 153.200 C 240.346 156.486,240.658 157.038,242.042 159.198 C 242.394 159.749,243.513 161.757,244.527 163.661 C 246.578 167.514,247.747 169.619,248.558 170.926 C 248.856 171.406,250.269 174.050,251.696 176.800 C 253.124 179.550,254.839 182.790,255.507 184.000 C 256.176 185.210,257.609 187.820,258.693 189.800 C 259.776 191.780,261.144 194.210,261.732 195.200 C 262.321 196.190,263.836 198.862,265.101 201.139 C 267.469 205.402,273.280 215.616,275.148 218.800 C 275.729 219.790,276.744 221.542,277.402 222.694 C 278.905 225.321,278.606 225.396,282.069 221.522 C 283.681 219.720,286.170 217.056,287.600 215.603 C 289.030 214.150,291.550 211.447,293.200 209.596 C 294.850 207.746,296.902 205.505,297.760 204.616 C 298.618 203.727,300.185 201.965,301.243 200.700 C 302.300 199.435,304.145 197.413,305.342 196.206 C 306.540 194.999,308.007 193.423,308.603 192.705 C 309.199 191.987,311.332 189.686,313.343 187.592 C 315.355 185.498,317.719 182.888,318.598 181.792 C 319.478 180.696,321.188 178.798,322.398 177.573 C 323.609 176.348,327.300 172.306,330.600 168.592 C 333.900 164.878,338.148 160.210,340.040 158.219 C 341.931 156.229,344.609 153.340,345.990 151.800 C 347.371 150.260,348.793 148.728,349.150 148.395 C 349.508 148.063,350.520 146.897,351.400 145.805 C 352.280 144.712,354.395 142.393,356.100 140.650 C 357.805 138.907,359.200 137.360,359.200 137.211 C 359.200 136.853,363.284 132.800,363.644 132.800 C 364.036 132.800,363.659 134.289,362.760 136.296 C 362.342 137.228,361.999 138.128,361.998 138.296 C 361.996 138.721,359.714 144.571,358.560 147.112 C 358.032 148.273,357.599 149.353,357.598 149.512 C 357.596 149.670,357.346 150.278,357.041 150.861 C 356.737 151.445,356.262 152.615,355.986 153.461 C 355.710 154.308,355.074 155.903,354.573 157.007 C 354.072 158.111,353.283 160.001,352.820 161.207 C 352.357 162.413,351.803 163.805,351.589 164.300 C 351.375 164.795,351.020 165.650,350.800 166.200 C 350.580 166.750,350.235 167.605,350.033 168.100 C 348.814 171.087,345.310 179.858,344.319 182.400 C 343.676 184.050,342.817 186.120,342.409 187.000 C 342.002 187.880,341.118 190.040,340.445 191.800 C 339.772 193.560,337.679 198.780,335.793 203.400 C 333.907 208.020,331.849 213.150,331.221 214.800 C 330.592 216.450,329.687 218.790,329.209 220.000 C 328.731 221.210,327.920 223.280,327.407 224.600 C 325.992 228.238,323.645 234.099,323.243 235.000 C 321.832 238.157,318.390 247.116,318.395 247.620 C 318.398 247.961,318.249 248.411,318.065 248.620 C 317.880 248.829,317.139 250.530,316.417 252.400 C 315.695 254.270,314.865 256.340,314.572 257.000 C 314.279 257.660,313.296 260.090,312.387 262.400 C 311.478 264.710,310.499 267.140,310.211 267.800 C 309.923 268.460,308.838 271.250,307.800 274.000 C 306.762 276.750,305.685 279.540,305.407 280.200 C 305.129 280.860,304.474 282.537,303.951 283.926 C 302.237 288.479,306.625 288.000,266.613 288.000 C 228.664 288.000,230.400 288.101,230.400 285.896 C 230.400 285.429,230.220 284.047,230.000 282.824 C 229.780 281.601,229.225 277.990,228.766 274.800 C 228.307 271.610,227.775 267.920,227.585 266.600 C 227.394 265.280,226.949 262.580,226.597 260.600 C 226.245 258.620,225.782 255.740,225.568 254.200 C 225.199 251.532,223.962 243.613,223.381 240.200 C 223.231 239.320,222.953 237.520,222.763 236.200 C 222.572 234.880,222.229 232.540,222.000 231.000 C 221.771 229.460,221.424 227.120,221.228 225.800 C 220.896 223.552,220.526 221.308,219.614 216.000 C 219.406 214.790,219.050 212.540,218.821 211.000 C 218.593 209.460,218.231 207.120,218.017 205.800 C 216.999 199.520,216.753 197.910,216.212 194.000 C 215.893 191.690,215.340 188.180,214.984 186.200 C 213.850 179.899,213.018 174.869,212.437 170.800 C 212.201 169.150,211.912 167.350,211.795 166.800 C 211.678 166.250,211.392 164.360,211.160 162.600 C 210.752 159.504,210.457 157.577,209.588 152.300 C 209.362 150.925,209.007 148.720,208.800 147.400 C 207.396 138.443,206.521 132.989,205.591 127.400 C 205.335 125.860,204.977 123.700,204.795 122.600 C 204.613 121.500,204.254 119.340,203.997 117.800 C 203.001 111.815,202.753 110.123,202.562 108.000 C 202.453 106.790,202.201 105.440,202.001 105.000 C 201.802 104.560,201.550 103.300,201.441 102.200 C 201.332 101.100,201.047 99.120,200.808 97.800 C 200.569 96.480,200.218 94.410,200.030 93.200 C 198.525 83.551,197.945 81.517,197.402 83.989 C 197.249 84.687,197.215 85.348,197.325 85.459 C 197.436 85.570,197.360 86.232,197.155 86.930 C 196.804 88.129,196.389 90.411,195.560 95.700 C 195.362 96.965,195.015 99.125,194.788 100.500 C 194.278 103.596,193.704 107.289,193.404 109.400 C 193.148 111.205,191.941 118.418,190.794 125.000 C 190.373 127.420,189.661 132.010,189.212 135.200 C 188.763 138.390,188.112 142.530,187.766 144.400 C 187.143 147.761,186.888 149.344,186.026 155.200 C 185.783 156.850,185.293 159.820,184.936 161.800 C 184.580 163.780,184.137 166.570,183.953 168.000 C 183.769 169.430,183.436 171.770,183.213 173.200 C 182.990 174.630,182.632 176.970,182.417 178.400 C 182.202 179.830,181.843 182.080,181.618 183.400 C 181.394 184.720,181.042 186.970,180.837 188.400 C 180.129 193.321,178.602 202.234,176.964 211.000 C 176.594 212.980,176.141 215.950,175.958 217.600 C 175.775 219.250,175.426 221.590,175.182 222.800 C 174.939 224.010,174.594 226.170,174.417 227.600 C 174.050 230.558,173.068 236.682,172.204 241.400 C 171.882 243.160,171.255 247.300,170.811 250.600 C 170.367 253.900,169.825 257.680,169.606 259.000 C 169.387 260.320,168.938 263.301,168.608 265.624 C 168.278 267.947,167.821 270.827,167.592 272.024 C 167.363 273.221,166.999 275.640,166.784 277.400 C 165.897 284.642,165.416 286.746,164.472 287.500 C 163.983 287.891,156.360 288.000,129.413 288.000 C 92.763 288.000,93.200 288.022,93.200 286.177 C 93.200 285.860,93.020 285.600,92.800 285.600 C 92.580 285.600,92.400 285.371,92.400 285.091 C 92.400 284.810,91.320 281.905,90.000 278.633 C 88.680 275.362,87.600 272.529,87.600 272.338 C 87.600 272.147,87.222 271.138,86.760 270.096 C 86.298 269.053,85.778 267.840,85.605 267.400 C 84.702 265.112,81.303 256.440,78.391 249.000 C 76.583 244.380,74.959 240.240,74.782 239.800 C 74.605 239.360,73.707 237.020,72.787 234.600 C 71.866 232.180,70.792 229.480,70.401 228.600 C 70.009 227.720,68.927 225.110,67.996 222.800 C 66.184 218.300,65.729 217.208,64.491 214.400 C 64.055 213.410,63.293 211.430,62.798 210.000 C 62.303 208.570,61.561 206.691,61.149 205.825 C 60.737 204.959,60.400 203.960,60.400 203.605 C 60.400 203.250,60.241 202.789,60.047 202.580 C 59.852 202.371,58.390 198.870,56.797 194.800 C 55.204 190.730,53.632 186.770,53.303 186.000 C 52.339 183.743,51.749 182.305,51.088 180.600 C 49.472 176.433,43.445 161.242,42.915 160.000 C 42.587 159.230,42.171 158.240,41.991 157.800 C 41.811 157.360,40.764 154.840,39.665 152.200 C 37.922 148.015,34.926 140.603,34.006 138.200 C 33.837 137.760,33.497 136.897,33.250 136.281 C 31.516 131.969,33.739 133.584,41.509 142.282 C 43.109 144.073,45.009 146.137,45.730 146.869 C 46.452 147.601,47.303 148.576,47.621 149.036 C 47.940 149.496,50.023 151.836,52.251 154.236 C 54.479 156.636,57.652 160.220,59.301 162.200 C 60.950 164.180,64.620 168.230,67.455 171.200 C 70.291 174.170,73.218 177.320,73.961 178.200 C 74.704 179.080,76.862 181.421,78.756 183.401 C 80.650 185.382,83.910 188.885,86.000 191.186 C 92.676 198.537,94.584 200.574,95.298 201.114 C 95.681 201.405,97.295 203.208,98.883 205.121 C 100.472 207.034,102.089 208.833,102.477 209.117 C 102.866 209.401,104.020 210.661,105.042 211.917 C 107.445 214.870,116.875 224.800,117.276 224.800 C 117.445 224.800,117.973 224.035,118.448 223.100 C 118.923 222.165,120.346 219.685,121.610 217.590 C 122.874 215.494,124.761 212.164,125.803 210.190 C 126.845 208.215,128.598 205.070,129.700 203.200 C 133.745 196.330,134.451 195.069,139.102 186.400 C 141.836 181.304,143.333 178.562,144.856 175.864 C 145.705 174.359,146.400 173.037,146.400 172.926 C 146.400 172.815,146.737 172.246,147.150 171.662 C 147.562 171.078,148.846 168.802,150.003 166.605 C 151.160 164.407,152.329 162.247,152.602 161.805 C 152.874 161.362,153.817 159.650,154.698 158.000 C 156.965 153.751,159.797 148.668,164.721 140.011 C 165.280 139.027,166.302 137.137,166.992 135.811 C 169.192 131.581,174.042 122.682,175.500 120.200 C 178.373 115.309,179.425 113.410,182.373 107.800 C 185.285 102.259,187.687 97.844,188.042 97.381 C 188.341 96.991,191.584 90.910,192.563 88.903 C 192.803 88.410,193.135 88.005,193.300 88.003 C 193.465 88.001,193.600 87.837,193.600 87.638 C 193.600 87.440,194.230 86.162,195.000 84.800 C 197.057 81.161,196.747 81.070,192.645 84.104 C 191.080 85.262,189.511 86.387,189.158 86.604 C 188.805 86.822,187.374 87.855,185.978 88.900 C 184.582 89.945,183.200 90.800,182.907 90.800 C 182.197 90.800,181.812 89.715,182.302 89.095 C 182.517 88.823,182.785 88.150,182.898 87.600 C 183.247 85.898,186.794 74.641,187.217 73.891 C 187.716 73.009,187.139 71.810,185.895 71.144 C 185.408 70.883,183.887 69.799,182.516 68.735 C 181.145 67.671,179.923 66.800,179.800 66.800 C 179.546 66.800,174.652 63.092,173.312 61.884 C 171.808 60.528,172.555 60.400,181.975 60.400 C 192.688 60.400,191.318 61.211,193.809 53.400 C 194.862 50.100,195.876 47.229,196.062 47.020 C 196.248 46.811,196.400 46.338,196.400 45.969 C 196.400 44.848,197.578 42.400,198.117 42.400 C 198.411 42.400,199.353 44.615,200.370 47.700 M301.771 305.429 C 302.322 305.979,302.400 308.059,302.400 322.206 L 302.400 338.355 301.511 338.977 C 300.416 339.744,95.402 339.950,93.974 339.186 C 93.189 338.766,92.699 305.834,93.467 305.067 C 94.121 304.412,301.115 304.772,301.771 305.429 " stroke="none" fill="#fbfbfb" fill-rule="evenodd"></path><path id="path2" d="M197.005 43.849 C 196.672 44.646,196.410 45.591,196.422 45.949 C 196.435 46.307,196.761 45.821,197.147 44.869 C 197.959 42.870,198.260 43.051,199.362 46.200 C 199.747 47.300,200.209 48.560,200.389 49.000 C 200.569 49.440,201.470 52.171,202.390 55.070 C 204.389 61.359,203.273 60.800,213.833 60.800 C 224.412 60.800,224.246 60.606,217.709 65.317 C 216.120 66.463,213.363 68.461,211.584 69.757 L 208.349 72.114 208.624 73.742 C 208.775 74.637,209.044 75.646,209.220 75.985 C 209.397 76.323,210.022 78.220,210.610 80.200 C 211.197 82.180,212.020 84.802,212.439 86.027 C 213.749 89.860,213.160 90.594,210.453 88.500 C 208.801 87.222,208.304 86.875,204.346 84.234 C 202.726 83.152,201.259 82.033,201.087 81.746 C 199.833 79.657,197.252 80.221,192.807 83.555 C 191.161 84.790,189.518 85.980,189.157 86.200 C 188.795 86.420,187.370 87.374,185.991 88.320 C 183.472 90.048,182.023 90.311,182.750 88.909 C 182.952 88.519,183.881 85.770,184.814 82.800 C 185.748 79.830,186.857 76.368,187.279 75.107 C 188.257 72.188,188.384 72.367,182.200 67.969 C 171.556 60.400,171.538 60.800,182.524 60.800 C 188.722 60.800,191.228 60.664,191.710 60.300 C 192.370 59.803,195.163 51.693,195.465 49.400 C 195.552 48.740,194.784 50.720,193.758 53.800 C 192.732 56.880,191.714 59.625,191.497 59.900 C 191.202 60.274,188.799 60.400,181.975 60.400 C 172.555 60.400,171.808 60.528,173.312 61.884 C 174.652 63.092,179.546 66.800,179.800 66.800 C 179.923 66.800,181.145 67.671,182.516 68.735 C 183.887 69.799,185.408 70.883,185.895 71.144 C 187.139 71.810,187.716 73.009,187.217 73.891 C 186.794 74.641,183.247 85.898,182.898 87.600 C 182.785 88.150,182.517 88.823,182.302 89.095 C 181.812 89.715,182.197 90.800,182.907 90.800 C 183.200 90.800,184.582 89.945,185.978 88.900 C 187.374 87.855,188.805 86.822,189.158 86.604 C 189.511 86.387,191.080 85.262,192.645 84.104 C 196.747 81.070,197.057 81.161,195.000 84.800 C 194.230 86.162,193.600 87.440,193.600 87.638 C 193.600 87.837,193.465 88.001,193.300 88.003 C 193.135 88.005,192.803 88.410,192.563 88.903 C 191.584 90.910,188.341 96.991,188.042 97.381 C 187.687 97.844,185.285 102.259,182.373 107.800 C 179.425 113.410,178.373 115.309,175.500 120.200 C 174.042 122.682,169.192 131.581,166.992 135.811 C 166.302 137.137,165.280 139.027,164.721 140.011 C 159.797 148.668,156.965 153.751,154.698 158.000 C 153.817 159.650,152.874 161.362,152.602 161.805 C 152.329 162.247,151.160 164.407,150.003 166.605 C 148.846 168.802,147.562 171.078,147.150 171.662 C 146.737 172.246,146.400 172.815,146.400 172.926 C 146.400 173.037,145.705 174.359,144.856 175.864 C 143.333 178.562,141.836 181.304,139.102 186.400 C 134.451 195.069,133.745 196.330,129.700 203.200 C 128.598 205.070,126.845 208.215,125.803 210.190 C 124.761 212.164,122.874 215.494,121.610 217.590 C 120.346 219.685,118.923 222.165,118.448 223.100 C 117.973 224.035,117.445 224.800,117.276 224.800 C 116.875 224.800,107.445 214.870,105.042 211.917 C 104.020 210.661,102.866 209.401,102.477 209.117 C 102.089 208.833,100.472 207.034,98.883 205.121 C 97.295 203.208,95.681 201.405,95.298 201.114 C 94.584 200.574,92.676 198.537,86.000 191.186 C 83.910 188.885,80.650 185.382,78.756 183.401 C 76.862 181.421,74.704 179.080,73.961 178.200 C 73.218 177.320,70.291 174.170,67.455 171.200 C 64.620 168.230,60.950 164.180,59.301 162.200 C 57.652 160.220,54.479 156.636,52.251 154.236 C 50.023 151.836,47.940 149.496,47.621 149.036 C 47.303 148.576,46.452 147.601,45.730 146.869 C 45.009 146.137,43.109 144.073,41.509 142.282 C 33.739 133.584,31.516 131.969,33.250 136.281 C 33.497 136.897,33.837 137.760,34.006 138.200 C 34.926 140.603,37.922 148.015,39.665 152.200 C 40.764 154.840,41.811 157.360,41.991 157.800 C 42.171 158.240,42.587 159.230,42.915 160.000 C 43.445 161.242,49.472 176.433,51.088 180.600 C 51.749 182.305,52.339 183.743,53.303 186.000 C 53.632 186.770,55.204 190.730,56.797 194.800 C 58.390 198.870,59.852 202.371,60.047 202.580 C 60.241 202.789,60.400 203.250,60.400 203.605 C 60.400 203.960,60.737 204.959,61.149 205.825 C 61.561 206.691,62.303 208.570,62.798 210.000 C 63.293 211.430,64.055 213.410,64.491 214.400 C 65.729 217.208,66.184 218.300,67.996 222.800 C 68.927 225.110,70.009 227.720,70.401 228.600 C 70.792 229.480,71.866 232.180,72.787 234.600 C 73.707 237.020,74.605 239.360,74.782 239.800 C 74.959 240.240,76.583 244.380,78.391 249.000 C 81.303 256.440,84.702 265.112,85.605 267.400 C 85.778 267.840,86.298 269.053,86.760 270.096 C 87.222 271.138,87.599 272.128,87.598 272.296 C 87.594 272.894,92.134 283.999,92.311 283.822 C 92.475 283.659,88.715 273.566,87.364 270.542 C 87.055 269.850,86.015 267.240,85.053 264.742 C 82.275 257.526,78.708 248.385,75.639 240.613 C 74.077 236.661,72.800 233.291,72.800 233.124 C 72.800 232.958,71.480 229.712,69.866 225.911 C 68.252 222.110,66.072 216.840,65.022 214.200 C 63.971 211.560,62.605 208.140,61.985 206.600 C 61.366 205.060,59.650 200.740,58.171 197.000 C 56.693 193.260,55.250 189.660,54.965 189.000 C 54.679 188.340,53.256 184.740,51.802 181.000 C 50.347 177.260,48.919 173.660,48.628 173.000 C 48.337 172.340,47.336 169.820,46.404 167.400 C 44.556 162.606,41.897 156.103,41.006 154.200 C 40.697 153.540,39.611 150.930,38.591 148.400 C 37.572 145.870,36.504 143.260,36.218 142.600 C 33.980 137.430,33.315 134.582,34.603 135.684 C 36.260 137.101,48.411 150.507,56.353 159.680 C 59.077 162.826,63.847 168.104,66.953 171.408 C 70.059 174.713,73.500 178.428,74.600 179.663 C 75.700 180.899,81.010 186.617,86.400 192.370 C 91.790 198.124,97.280 204.070,98.600 205.585 C 102.993 210.624,109.107 217.353,112.969 221.400 C 117.216 225.850,117.356 225.886,119.004 222.952 C 119.508 222.054,120.902 219.717,122.102 217.760 C 123.301 215.802,125.140 212.598,126.187 210.639 C 127.235 208.680,128.644 206.160,129.317 205.039 C 129.990 203.918,131.292 201.650,132.209 200.000 C 137.961 189.659,140.342 185.321,142.309 181.600 C 143.531 179.290,145.466 175.780,146.609 173.800 C 147.752 171.820,149.997 167.770,151.598 164.800 C 158.286 152.394,158.621 151.784,160.397 148.800 C 161.691 146.625,165.550 139.561,173.280 125.222 C 175.467 121.164,177.577 117.384,177.969 116.822 C 178.360 116.260,180.352 112.650,182.396 108.800 C 184.439 104.950,186.927 100.360,187.924 98.600 C 188.922 96.840,190.500 93.960,191.431 92.200 C 194.970 85.512,195.952 83.816,196.370 83.677 C 196.903 83.499,196.931 85.683,196.428 88.280 C 195.869 91.166,195.572 94.125,195.994 92.600 C 196.465 90.900,197.308 86.314,197.281 85.600 C 197.162 82.420,198.071 82.420,198.720 85.600 C 199.166 87.780,199.367 88.946,200.030 93.200 C 200.218 94.410,200.569 96.480,200.808 97.800 C 201.047 99.120,201.332 101.100,201.441 102.200 C 201.550 103.300,201.802 104.560,202.001 105.000 C 202.201 105.440,202.453 106.790,202.562 108.000 C 202.753 110.123,203.001 111.815,203.997 117.800 C 204.254 119.340,204.613 121.500,204.795 122.600 C 204.977 123.700,205.335 125.860,205.591 127.400 C 206.521 132.989,207.396 138.443,208.800 147.400 C 209.007 148.720,209.362 150.925,209.588 152.300 C 210.457 157.577,210.752 159.504,211.160 162.600 C 211.392 164.360,211.678 166.250,211.795 166.800 C 211.912 167.350,212.201 169.150,212.437 170.800 C 213.018 174.869,213.850 179.899,214.984 186.200 C 215.340 188.180,215.893 191.690,216.212 194.000 C 216.753 197.910,216.999 199.520,218.017 205.800 C 218.231 207.120,218.593 209.460,218.821 211.000 C 219.050 212.540,219.406 214.790,219.614 216.000 C 220.526 221.308,220.896 223.552,221.228 225.800 C 221.424 227.120,221.771 229.460,222.000 231.000 C 222.229 232.540,222.572 234.880,222.763 236.200 C 222.953 237.520,223.231 239.320,223.381 240.200 C 223.961 243.610,225.199 251.532,225.569 254.200 C 226.195 258.722,227.215 264.548,227.415 264.748 C 227.708 265.042,227.632 263.923,227.200 261.573 C 226.980 260.378,226.613 258.050,226.384 256.400 C 225.836 252.452,225.228 248.342,224.770 245.500 C 224.567 244.235,224.233 242.165,224.030 240.900 C 223.528 237.782,222.347 230.077,221.684 225.600 C 221.206 222.373,219.991 214.690,217.982 202.200 C 215.089 184.210,214.324 179.401,213.974 177.000 C 213.361 172.790,212.847 169.473,212.394 166.800 C 212.152 165.370,211.789 163.120,211.588 161.800 C 211.387 160.480,211.051 158.410,210.843 157.200 C 210.174 153.321,209.540 149.460,209.200 147.200 C 209.018 145.990,208.668 143.740,208.422 142.200 C 208.176 140.660,207.815 138.320,207.620 137.000 C 206.788 131.387,206.385 128.861,205.960 126.600 C 205.712 125.280,205.349 123.165,205.155 121.900 C 204.960 120.635,204.626 118.565,204.413 117.300 C 204.200 116.035,203.828 113.740,203.586 112.200 C 203.344 110.660,202.978 108.365,202.773 107.100 C 202.568 105.835,202.238 103.765,202.040 102.500 C 201.841 101.235,201.464 99.030,201.200 97.600 C 200.738 95.094,200.574 94.049,199.643 87.674 C 199.408 86.065,199.111 84.580,198.984 84.374 C 198.857 84.168,198.869 83.811,199.012 83.581 C 199.387 82.973,200.280 83.822,201.089 85.555 C 201.460 86.350,202.292 87.900,202.937 89.000 C 204.242 91.224,210.006 101.717,213.813 108.800 C 216.988 114.707,220.351 120.857,221.796 123.400 C 222.422 124.500,223.326 126.120,223.806 127.000 C 224.286 127.880,226.449 131.840,228.614 135.800 C 230.778 139.760,234.036 145.779,235.853 149.176 C 237.670 152.573,239.990 156.803,241.007 158.576 C 244.457 164.586,248.645 172.181,251.279 177.200 C 254.517 183.373,259.836 193.081,261.533 195.918 C 262.230 197.082,262.800 198.148,262.800 198.286 C 262.800 198.424,263.046 198.821,263.347 199.169 C 263.648 199.516,265.292 202.410,267.001 205.600 C 272.135 215.187,278.223 225.200,278.918 225.200 C 279.151 225.200,280.525 223.920,281.971 222.356 C 283.417 220.792,286.672 217.327,289.204 214.656 C 291.736 211.985,295.957 207.370,298.584 204.400 C 303.050 199.350,305.673 196.502,312.600 189.179 C 314.140 187.551,316.640 184.775,318.155 183.010 C 319.670 181.244,322.190 178.439,323.755 176.775 C 328.252 171.993,334.143 165.547,335.612 163.800 C 336.352 162.920,338.588 160.475,340.579 158.366 C 345.672 152.973,350.763 147.364,351.724 146.085 C 352.173 145.488,354.087 143.380,355.977 141.400 C 357.868 139.420,360.086 137.012,360.907 136.048 L 362.400 134.296 362.400 135.524 C 362.400 136.200,362.220 136.864,362.000 137.000 C 361.780 137.136,361.600 137.599,361.600 138.029 C 361.600 138.459,361.435 139.123,361.234 139.505 C 360.469 140.954,356.400 150.995,356.400 151.432 C 356.400 152.030,357.145 151.075,357.366 150.193 C 357.506 149.635,358.048 148.238,358.570 147.089 C 359.716 144.566,361.996 138.720,361.998 138.296 C 361.999 138.128,362.342 137.228,362.760 136.296 C 363.659 134.289,364.036 132.800,363.644 132.800 C 363.284 132.800,359.200 136.853,359.200 137.211 C 359.200 137.360,357.805 138.907,356.100 140.650 C 354.395 142.393,352.280 144.712,351.400 145.805 C 350.520 146.897,349.508 148.063,349.150 148.395 C 348.793 148.728,347.371 150.260,345.990 151.800 C 344.609 153.340,341.931 156.229,340.040 158.219 C 338.148 160.210,333.900 164.878,330.600 168.592 C 327.300 172.306,323.609 176.348,322.398 177.573 C 321.188 178.798,319.478 180.696,318.598 181.792 C 317.719 182.888,315.355 185.498,313.343 187.592 C 311.332 189.686,309.199 191.987,308.603 192.705 C 308.007 193.423,306.540 194.999,305.342 196.206 C 304.145 197.413,302.300 199.435,301.243 200.700 C 300.185 201.965,298.618 203.727,297.760 204.616 C 296.902 205.505,294.850 207.746,293.200 209.596 C 291.550 211.447,289.030 214.150,287.600 215.603 C 286.170 217.056,283.681 219.720,282.069 221.522 C 278.606 225.396,278.905 225.321,277.402 222.694 C 276.744 221.542,275.729 219.790,275.148 218.800 C 273.280 215.616,267.469 205.402,265.101 201.139 C 263.836 198.862,262.321 196.190,261.732 195.200 C 261.144 194.210,259.776 191.780,258.693 189.800 C 257.609 187.820,256.176 185.210,255.507 184.000 C 254.839 182.790,253.124 179.550,251.696 176.800 C 250.269 174.050,248.856 171.406,248.558 170.926 C 247.747 169.619,246.578 167.514,244.527 163.661 C 243.513 161.757,242.394 159.749,242.042 159.198 C 240.658 157.038,240.346 156.486,238.647 153.200 C 237.680 151.330,235.944 148.090,234.788 146.000 C 231.119 139.365,228.384 134.324,226.105 130.000 C 224.888 127.690,223.744 125.610,223.562 125.378 C 223.057 124.733,218.000 115.504,218.000 115.228 C 218.000 115.095,217.565 114.346,217.034 113.565 C 216.503 112.783,215.084 110.266,213.880 107.972 C 212.676 105.677,211.126 102.810,210.436 101.600 C 209.746 100.390,208.375 97.828,207.390 95.907 C 206.405 93.986,204.969 91.429,204.199 90.226 C 203.430 89.023,202.800 87.850,202.800 87.619 C 202.800 87.389,202.620 87.200,202.400 87.200 C 202.180 87.200,202.000 86.929,202.000 86.599 C 202.000 86.268,201.467 85.143,200.816 84.099 C 200.165 83.054,199.786 82.146,199.974 82.080 C 200.349 81.950,207.590 86.771,209.200 88.222 C 210.324 89.237,213.012 90.800,213.630 90.800 C 214.314 90.800,212.127 82.193,210.428 78.200 C 209.993 77.180,208.800 73.210,208.800 72.787 C 208.800 72.434,213.197 69.034,218.200 65.518 C 222.059 62.806,224.091 61.024,223.732 60.665 C 223.586 60.519,219.280 60.400,214.163 60.400 L 204.859 60.400 204.229 59.139 C 203.883 58.445,203.600 57.581,203.600 57.219 C 203.600 56.856,203.457 56.389,203.282 56.180 C 203.107 55.971,202.773 55.170,202.541 54.400 C 199.109 43.031,198.129 41.161,197.005 43.849 M194.879 97.700 C 194.432 99.791,194.235 100.923,193.557 105.300 C 193.048 108.577,192.500 111.856,192.033 114.400 C 191.811 115.610,191.445 117.950,191.220 119.600 C 190.995 121.250,190.631 123.320,190.411 124.200 C 190.191 125.080,189.826 127.420,189.598 129.400 C 189.371 131.380,188.926 134.440,188.609 136.200 C 188.293 137.960,187.661 141.650,187.205 144.400 C 186.749 147.150,186.087 150.930,185.734 152.800 C 185.381 154.670,184.950 157.460,184.777 159.000 C 184.604 160.540,184.179 163.330,183.832 165.200 C 183.102 169.136,182.994 171.738,183.600 170.800 C 183.813 170.470,183.990 169.480,183.992 168.600 C 183.994 167.720,184.345 165.110,184.771 162.800 C 185.197 160.490,185.751 157.160,186.002 155.400 C 186.738 150.247,187.097 148.010,187.766 144.400 C 188.112 142.530,188.763 138.390,189.212 135.200 C 189.661 132.010,190.373 127.420,190.794 125.000 C 191.941 118.418,193.148 111.205,193.404 109.400 C 193.972 105.400,195.049 98.737,195.425 96.900 C 195.571 96.185,195.609 95.600,195.509 95.600 C 195.409 95.600,195.126 96.545,194.879 97.700 M353.493 158.307 C 352.033 161.768,350.313 165.950,349.670 167.600 C 347.728 172.585,342.778 184.893,342.028 186.600 C 341.642 187.480,340.905 189.280,340.392 190.600 C 339.878 191.920,338.860 194.427,338.129 196.170 C 337.398 197.914,336.800 199.513,336.800 199.723 C 336.800 199.933,335.973 202.016,334.962 204.352 C 332.801 209.348,332.033 211.218,330.591 215.000 C 330.004 216.540,329.196 218.610,328.796 219.600 C 327.493 222.822,325.563 227.735,324.397 230.800 C 323.769 232.450,322.423 235.780,321.407 238.200 C 320.391 240.620,319.191 243.680,318.740 245.000 C 318.290 246.320,316.769 250.132,315.361 253.472 C 313.952 256.812,312.800 259.657,312.800 259.795 C 312.800 259.933,311.521 263.231,309.958 267.123 C 308.394 271.015,306.574 275.730,305.912 277.600 C 304.719 280.971,303.712 283.429,302.528 285.863 L 301.914 287.126 297.457 287.389 C 290.107 287.822,232.102 287.463,231.621 286.981 C 231.144 286.504,230.326 282.349,229.357 275.487 C 228.992 272.895,228.604 270.862,228.497 270.970 C 228.290 271.177,229.368 279.657,230.017 282.931 C 230.228 283.992,230.400 285.284,230.400 285.802 C 230.400 288.116,228.489 288.000,266.613 288.000 C 306.625 288.000,302.237 288.479,303.951 283.926 C 304.474 282.537,305.129 280.860,305.407 280.200 C 305.685 279.540,306.762 276.750,307.800 274.000 C 308.838 271.250,309.923 268.460,310.211 267.800 C 310.499 267.140,311.478 264.710,312.387 262.400 C 313.296 260.090,314.279 257.660,314.572 257.000 C 314.865 256.340,315.695 254.270,316.417 252.400 C 317.139 250.530,317.880 248.829,318.065 248.620 C 318.249 248.411,318.398 247.961,318.395 247.620 C 318.390 247.116,321.832 238.157,323.243 235.000 C 323.645 234.099,325.992 228.238,327.407 224.600 C 327.920 223.280,328.731 221.210,329.209 220.000 C 329.687 218.790,330.592 216.450,331.221 214.800 C 331.849 213.150,333.907 208.020,335.793 203.400 C 337.679 198.780,339.772 193.560,340.445 191.800 C 341.118 190.040,342.002 187.880,342.409 187.000 C 342.817 186.120,343.676 184.050,344.319 182.400 C 346.133 177.744,350.173 167.703,351.642 164.200 C 351.827 163.760,352.352 162.425,352.810 161.232 C 353.267 160.040,354.012 158.251,354.465 157.257 C 355.507 154.969,356.448 152.315,356.278 152.144 C 356.206 152.072,354.952 154.845,353.493 158.307 M182.425 175.100 C 182.174 177.025,181.810 179.410,181.617 180.400 C 181.115 182.969,180.571 186.220,179.608 192.400 C 179.145 195.370,178.384 199.780,177.917 202.200 C 177.451 204.620,176.939 207.590,176.781 208.800 C 176.277 212.653,174.790 222.177,174.593 222.810 C 174.489 223.146,174.223 224.856,174.003 226.610 C 173.783 228.365,173.342 231.330,173.023 233.200 C 171.783 240.479,170.778 246.839,169.990 252.400 C 169.539 255.590,168.825 260.450,168.405 263.200 C 167.249 270.771,166.451 276.165,165.816 280.702 C 165.500 282.958,165.006 285.298,164.717 285.902 L 164.191 287.000 155.795 287.300 C 145.760 287.659,95.259 287.467,94.395 287.067 C 94.062 286.913,93.535 286.212,93.223 285.508 C 92.863 284.694,92.588 284.435,92.469 284.794 C 92.365 285.105,92.487 285.429,92.740 285.513 C 92.993 285.598,93.200 285.911,93.200 286.211 C 93.200 288.017,92.857 288.000,129.413 288.000 C 156.360 288.000,163.983 287.891,164.472 287.500 C 165.416 286.746,165.897 284.642,166.784 277.400 C 166.999 275.640,167.363 273.221,167.592 272.024 C 167.821 270.827,168.278 267.947,168.608 265.624 C 168.938 263.301,169.387 260.320,169.606 259.000 C 169.825 257.680,170.367 253.900,170.811 250.600 C 171.255 247.300,171.882 243.160,172.204 241.400 C 173.068 236.682,174.050 230.558,174.417 227.600 C 174.594 226.170,174.939 224.010,175.182 222.800 C 175.426 221.590,175.775 219.250,175.958 217.600 C 176.141 215.950,176.594 212.980,176.964 211.000 C 178.602 202.234,180.129 193.321,180.837 188.400 C 181.042 186.970,181.395 184.720,181.621 183.400 C 182.673 177.253,183.377 171.600,183.091 171.600 C 182.977 171.600,182.677 173.175,182.425 175.100 M227.693 266.800 C 227.695 268.565,228.291 271.188,228.330 269.600 C 228.343 269.050,228.205 267.880,228.023 267.000 L 227.692 265.400 227.693 266.800 M93.467 305.067 C 92.699 305.834,93.189 338.766,93.974 339.186 C 95.402 339.950,300.416 339.744,301.511 338.977 L 302.400 338.355 302.400 322.206 C 302.400 308.059,302.322 305.979,301.771 305.429 C 301.115 304.772,94.121 304.412,93.467 305.067 M301.269 305.862 C 302.126 306.638,302.420 336.467,301.586 338.026 C 301.174 338.796,96.223 339.321,94.233 338.557 C 93.573 338.304,93.217 306.116,93.867 305.467 C 94.550 304.783,300.510 305.176,301.269 305.862 " stroke="none" fill="#cec3ad" fill-rule="evenodd"></path><path id="path3" d="M200.006 49.500 C 200.024 50.377,200.788 50.959,200.794 50.100 C 200.797 49.605,200.620 49.200,200.400 49.200 C 200.180 49.200,200.003 49.335,200.006 49.500 M195.044 51.243 C 194.947 51.549,194.583 52.687,194.234 53.771 C 193.484 56.104,193.454 56.484,194.105 55.400 C 194.658 54.479,195.605 51.077,195.374 50.843 C 195.289 50.756,195.140 50.936,195.044 51.243 M201.606 54.476 C 201.618 55.481,202.387 56.308,202.394 55.324 C 202.397 54.842,202.220 54.336,202.000 54.200 C 201.780 54.064,201.603 54.188,201.606 54.476 M192.632 58.986 C 192.030 60.427,191.521 60.672,188.600 60.926 C 187.306 61.039,187.423 61.078,189.211 61.133 C 191.840 61.213,193.031 60.534,193.284 58.810 C 193.515 57.236,193.344 57.282,192.632 58.986 M203.156 59.474 C 203.314 60.065,203.674 60.625,203.955 60.718 C 204.325 60.842,204.288 60.544,203.823 59.644 C 203.032 58.116,202.776 58.050,203.156 59.474 M174.000 61.145 C 174.000 61.617,175.987 63.570,176.987 64.081 C 177.434 64.309,177.154 63.889,176.364 63.148 C 175.574 62.407,175.004 61.575,175.097 61.300 C 175.190 61.025,174.982 60.800,174.633 60.800 C 174.285 60.800,174.000 60.955,174.000 61.145 M178.700 61.096 C 180.075 61.174,182.325 61.174,183.700 61.096 C 185.075 61.018,183.950 60.954,181.200 60.954 C 178.450 60.954,177.325 61.018,178.700 61.096 M214.000 61.186 C 220.378 61.381,220.990 61.462,220.882 62.100 C 220.740 62.949,221.064 62.993,221.829 62.229 C 223.138 60.920,222.497 60.799,214.700 60.886 L 207.000 60.971 214.000 61.186 M216.716 65.329 C 215.239 66.468,213.035 68.106,211.817 68.969 C 210.600 69.831,209.680 70.614,209.774 70.707 C 209.937 70.870,212.087 69.433,215.159 67.110 C 215.951 66.510,217.275 65.563,218.100 65.005 C 218.925 64.447,219.600 63.812,219.600 63.595 C 219.600 63.074,219.774 62.969,216.716 65.329 M182.130 67.864 C 182.275 68.009,182.827 68.414,183.355 68.764 C 183.884 69.114,185.142 69.991,186.151 70.714 C 187.160 71.437,187.890 71.778,187.772 71.471 C 187.654 71.164,187.072 70.666,186.479 70.365 C 185.885 70.063,184.774 69.318,184.009 68.708 C 182.809 67.753,181.374 67.107,182.130 67.864 M187.896 73.084 C 187.783 73.478,187.561 74.115,187.403 74.500 C 187.238 74.899,187.291 75.200,187.525 75.200 C 187.751 75.200,188.058 74.647,188.206 73.971 C 188.497 72.648,188.236 71.901,187.896 73.084 M208.398 74.881 C 209.281 78.076,210.124 79.784,209.740 77.600 C 209.605 76.830,209.338 76.029,209.147 75.820 C 208.956 75.611,208.800 75.060,208.800 74.596 C 208.800 74.133,208.543 73.404,208.229 72.976 C 207.797 72.390,207.838 72.856,208.398 74.881 M185.769 79.783 C 185.368 81.380,185.763 81.731,186.241 80.203 C 186.483 79.431,186.531 78.800,186.348 78.800 C 186.165 78.800,185.904 79.242,185.769 79.783 M196.000 80.400 C 195.683 80.596,195.556 80.889,195.718 81.052 C 195.881 81.214,196.223 81.137,196.480 80.880 C 197.084 80.276,196.747 79.938,196.000 80.400 M198.600 80.400 C 198.736 80.620,199.107 80.800,199.424 80.800 C 199.741 80.800,200.375 81.175,200.833 81.633 C 201.292 82.092,201.763 82.370,201.881 82.252 C 201.999 82.135,201.845 81.788,201.539 81.482 C 200.396 80.339,198.022 79.465,198.600 80.400 M210.439 81.200 C 210.406 81.931,211.334 84.668,211.758 85.092 C 211.927 85.260,211.936 84.859,211.778 84.199 C 211.371 82.502,210.470 80.484,210.439 81.200 M193.400 82.400 C 193.002 82.840,192.856 83.200,193.076 83.200 C 193.296 83.200,193.802 82.840,194.200 82.400 C 194.598 81.960,194.744 81.600,194.524 81.600 C 194.304 81.600,193.798 81.960,193.400 82.400 M203.763 83.540 C 203.930 83.811,204.796 84.520,205.687 85.116 C 206.579 85.712,207.778 86.514,208.354 86.898 C 208.929 87.282,209.580 87.594,209.800 87.591 C 210.020 87.589,209.570 87.190,208.800 86.705 C 208.030 86.219,207.220 85.620,207.000 85.373 C 206.365 84.658,203.425 82.994,203.763 83.540 M195.060 85.405 C 193.737 87.772,193.205 89.397,194.146 88.200 C 194.492 87.760,194.780 87.205,194.787 86.968 C 194.794 86.730,195.250 86.294,195.800 86.000 C 196.428 85.664,196.800 85.118,196.800 84.532 C 196.800 83.101,196.171 83.417,195.060 85.405 M199.350 84.750 C 199.488 85.493,199.600 86.853,199.600 87.774 C 199.600 88.694,199.870 89.796,200.201 90.224 C 200.577 90.710,200.739 90.776,200.633 90.400 C 199.641 86.872,200.192 84.419,201.375 87.100 C 202.158 88.877,203.984 91.935,203.993 91.486 C 204.007 90.854,200.724 84.976,199.924 84.200 L 199.100 83.400 199.350 84.750 M189.200 85.445 C 185.074 88.636,183.762 89.274,183.529 88.205 C 183.443 87.806,183.245 87.945,182.927 88.628 C 182.138 90.326,183.227 90.216,185.989 88.320 C 187.368 87.374,188.891 86.381,189.373 86.114 C 190.405 85.542,191.886 83.988,191.362 84.027 C 191.163 84.042,190.190 84.680,189.200 85.445 M212.400 87.984 C 212.400 88.686,212.229 88.776,211.300 88.560 C 210.237 88.314,210.227 88.326,211.000 88.940 C 212.226 89.913,213.200 89.773,213.200 88.624 C 213.200 88.087,213.020 87.536,212.800 87.400 C 212.580 87.264,212.400 87.527,212.400 87.984 M195.709 90.800 C 195.709 91.790,195.787 92.195,195.882 91.700 C 195.978 91.205,195.978 90.395,195.882 89.900 C 195.787 89.405,195.709 89.810,195.709 90.800 M191.386 92.300 C 190.735 93.565,189.600 95.629,188.863 96.886 C 188.127 98.143,187.587 99.362,187.665 99.594 C 187.742 99.827,188.634 98.438,189.646 96.509 C 190.658 94.579,191.889 92.325,192.382 91.500 C 192.876 90.675,193.119 90.000,192.924 90.000 C 192.729 90.000,192.037 91.035,191.386 92.300 M206.724 96.773 C 207.529 98.298,208.244 99.489,208.313 99.420 C 208.518 99.215,205.854 94.000,205.545 94.000 C 205.389 94.000,205.920 95.248,206.724 96.773 M201.256 97.400 C 201.256 98.280,201.411 99.360,201.600 99.800 C 201.868 100.423,201.944 100.246,201.944 99.000 C 201.944 98.120,201.789 97.040,201.600 96.600 C 201.332 95.977,201.256 96.154,201.256 97.400 M194.062 99.600 C 194.022 100.150,193.877 101.050,193.740 101.600 C 193.549 102.368,193.603 102.496,193.973 102.153 C 194.251 101.894,194.387 101.050,194.295 100.153 C 194.204 99.274,194.103 99.034,194.062 99.600 M210.400 103.337 C 210.400 103.501,211.056 104.842,211.859 106.317 C 212.661 107.793,213.852 110.035,214.505 111.300 C 215.158 112.565,215.855 113.600,216.055 113.600 C 216.255 113.600,216.168 113.195,215.862 112.700 C 215.556 112.205,214.367 110.000,213.220 107.800 C 211.239 104.002,210.400 102.674,210.400 103.337 M193.074 105.341 C 192.895 106.188,192.850 106.983,192.974 107.108 C 193.427 107.560,193.650 106.845,193.526 105.340 L 193.399 103.800 193.074 105.341 M183.001 107.598 C 182.203 109.182,181.746 110.357,181.984 110.210 C 182.552 109.859,184.912 105.178,184.652 104.919 C 184.542 104.808,183.799 106.014,183.001 107.598 M202.805 107.033 C 202.812 108.851,203.168 110.400,203.580 110.400 C 203.899 110.400,203.391 106.058,203.029 105.696 C 202.903 105.570,202.802 106.172,202.805 107.033 M179.201 114.675 C 177.844 117.333,177.840 117.346,178.354 117.029 C 178.963 116.652,180.482 113.646,180.315 113.145 C 180.243 112.928,179.741 113.617,179.201 114.675 M204.400 118.553 C 204.400 118.883,204.580 119.264,204.800 119.400 C 205.020 119.536,205.200 119.377,205.200 119.047 C 205.200 118.717,205.020 118.336,204.800 118.200 C 204.580 118.064,204.400 118.223,204.400 118.553 M190.667 119.867 C 190.520 120.013,190.400 120.493,190.400 120.933 C 190.400 121.936,190.929 121.465,191.008 120.392 C 191.073 119.515,191.051 119.482,190.667 119.867 M175.257 121.657 C 174.975 122.109,174.832 122.566,174.940 122.673 C 175.047 122.781,175.344 122.478,175.600 122.000 C 175.856 121.522,175.998 121.065,175.917 120.984 C 175.836 120.903,175.539 121.206,175.257 121.657 M206.046 127.000 C 206.115 128.631,206.715 129.987,206.754 128.600 C 206.773 127.940,206.613 127.130,206.400 126.800 C 206.081 126.306,206.018 126.341,206.046 127.000 M223.200 126.922 C 223.200 127.495,225.451 131.200,225.800 131.200 C 225.919 131.200,225.455 130.120,224.768 128.800 C 223.493 126.351,223.200 125.999,223.200 126.922 M171.400 129.200 C 171.059 129.860,170.869 130.400,170.979 130.400 C 171.089 130.400,171.459 129.860,171.800 129.200 C 172.141 128.540,172.331 128.000,172.221 128.000 C 172.111 128.000,171.741 128.540,171.400 129.200 M207.099 132.243 C 206.947 132.487,206.998 133.296,207.212 134.040 C 207.425 134.785,207.600 136.161,207.600 137.097 C 207.600 138.034,207.777 138.800,207.992 138.800 C 208.367 138.800,208.268 137.305,207.634 133.400 C 207.492 132.520,207.251 131.999,207.099 132.243 M226.800 133.153 C 226.800 133.725,227.931 136.000,228.216 136.000 C 228.418 136.000,227.319 133.185,226.987 132.854 C 226.884 132.751,226.800 132.886,226.800 133.153 M361.483 135.311 C 361.042 135.858,360.853 136.548,360.991 137.103 C 361.127 137.647,360.745 139.114,360.026 140.803 C 359.371 142.341,359.004 143.600,359.210 143.600 C 359.416 143.600,359.708 143.105,359.858 142.500 C 360.009 141.895,360.462 140.810,360.866 140.088 C 361.270 139.366,361.600 138.457,361.600 138.068 C 361.600 137.679,361.794 137.166,362.031 136.929 C 362.268 136.692,362.403 136.031,362.331 135.460 L 362.200 134.422 361.483 135.311 M34.000 136.131 C 34.000 137.542,36.490 143.761,37.240 144.225 C 37.527 144.402,37.535 144.250,37.263 143.742 C 36.869 143.004,36.195 141.412,35.196 138.863 C 34.756 137.740,34.762 137.471,35.231 137.181 C 35.684 136.901,35.621 136.679,34.895 136.002 L 34.000 135.169 34.000 136.131 M228.869 137.400 C 229.492 138.948,230.000 139.543,230.000 138.724 C 230.000 138.375,229.637 137.664,229.194 137.144 L 228.387 136.200 228.869 137.400 M187.693 139.600 C 187.693 140.370,187.775 140.685,187.876 140.300 C 187.976 139.915,187.976 139.285,187.876 138.900 C 187.775 138.515,187.693 138.830,187.693 139.600 M356.364 141.105 C 354.062 143.644,353.757 144.329,355.940 142.058 C 357.073 140.879,358.000 139.844,358.000 139.758 C 358.000 139.396,357.658 139.678,356.364 141.105 M38.769 140.600 C 39.336 141.702,45.167 147.895,45.172 147.400 C 45.174 147.180,43.642 145.380,41.767 143.400 C 39.892 141.420,38.543 140.160,38.769 140.600 M230.427 140.200 C 230.429 140.906,231.570 142.655,231.586 141.976 C 231.594 141.634,231.336 141.004,231.013 140.576 C 230.690 140.149,230.426 139.980,230.427 140.200 M353.000 144.545 C 352.780 144.800,351.948 145.816,351.152 146.804 C 350.355 147.792,348.731 149.590,347.543 150.800 C 346.354 152.010,344.778 153.810,344.040 154.800 C 343.164 155.974,343.763 155.488,345.763 153.400 C 349.201 149.812,353.764 144.427,353.544 144.218 C 353.465 144.142,353.220 144.289,353.000 144.545 M358.011 145.745 C 357.785 146.325,357.424 147.250,357.210 147.800 C 356.995 148.350,356.915 148.800,357.032 148.800 C 357.377 148.800,358.888 145.155,358.645 144.911 C 358.522 144.789,358.237 145.164,358.011 145.745 M209.200 147.133 C 209.200 148.270,209.377 149.200,209.592 149.200 C 209.829 149.200,209.886 148.444,209.736 147.300 C 209.398 144.715,209.200 144.654,209.200 147.133 M38.400 147.467 C 38.400 148.057,40.081 152.052,40.256 151.877 C 40.454 151.679,39.169 147.882,38.747 147.420 C 38.530 147.183,38.400 147.200,38.400 147.467 M46.400 148.608 C 46.400 149.091,48.082 151.252,48.293 151.040 C 48.407 150.927,48.027 150.272,47.450 149.586 C 46.872 148.900,46.400 148.460,46.400 148.608 M40.413 152.876 C 40.406 153.248,40.560 153.651,40.755 153.772 C 40.949 153.892,41.523 155.163,42.028 156.595 C 42.534 158.028,43.097 159.200,43.279 159.200 C 43.462 159.200,43.320 158.525,42.964 157.700 C 42.608 156.875,42.157 155.652,41.962 154.982 C 41.485 153.342,40.431 151.910,40.413 152.876 M49.600 152.714 C 49.600 152.913,49.986 153.419,50.458 153.838 C 51.310 154.595,51.313 154.594,50.856 153.722 C 50.346 152.750,49.600 152.151,49.600 152.714 M353.800 156.000 C 353.650 156.473,353.617 156.950,353.727 157.060 C 353.837 157.170,354.050 156.873,354.200 156.400 C 354.350 155.927,354.383 155.450,354.273 155.340 C 354.163 155.230,353.950 155.527,353.800 156.000 M210.840 157.300 C 210.818 158.125,210.980 158.800,211.200 158.800 C 211.658 158.800,211.658 158.230,211.200 156.800 C 210.914 155.908,210.875 155.961,210.840 157.300 M337.080 162.080 C 336.079 163.242,335.336 164.270,335.430 164.363 C 335.523 164.457,335.645 164.455,335.700 164.359 C 335.755 164.263,336.599 163.337,337.575 162.301 C 338.551 161.265,339.249 160.316,339.125 160.192 C 339.002 160.068,338.081 160.918,337.080 162.080 M48.425 172.200 C 48.425 172.640,48.708 173.360,49.054 173.800 C 49.665 174.577,49.674 174.571,49.393 173.600 C 48.918 171.960,48.424 171.246,48.425 172.200 M325.670 174.926 C 324.672 175.988,324.492 176.753,325.422 175.982 C 326.029 175.478,326.970 174.000,326.684 174.000 C 326.604 174.000,326.148 174.417,325.670 174.926 M214.000 177.510 C 214.000 178.193,214.177 178.862,214.394 178.996 C 214.640 179.148,214.694 178.745,214.537 177.920 C 214.200 176.151,214.000 175.999,214.000 177.510 M322.900 177.888 C 322.625 177.986,322.400 178.360,322.400 178.719 C 322.400 179.313,322.461 179.311,323.076 178.695 C 323.799 177.972,323.717 177.596,322.900 177.888 M73.162 178.729 C 73.405 179.184,73.801 179.677,74.042 179.826 C 74.356 180.020,74.354 179.862,74.038 179.271 C 73.795 178.816,73.399 178.323,73.158 178.174 C 72.844 177.980,72.846 178.138,73.162 178.729 M143.772 178.987 C 143.416 179.530,143.192 180.175,143.273 180.419 C 143.355 180.664,143.729 180.220,144.104 179.432 C 144.891 177.781,144.716 177.546,143.772 178.987 M53.063 184.100 C 53.748 185.872,54.400 186.874,54.400 186.155 C 54.400 185.638,52.843 182.400,52.594 182.400 C 52.491 182.400,52.702 183.165,53.063 184.100 M215.632 186.276 C 215.614 187.418,215.758 188.450,215.950 188.569 C 216.143 188.688,216.218 187.934,216.117 186.893 C 215.850 184.139,215.668 183.906,215.632 186.276 M341.843 185.433 C 341.405 186.573,341.588 186.968,342.187 186.176 C 342.510 185.749,342.780 185.265,342.787 185.100 C 342.811 184.541,342.087 184.796,341.843 185.433 M313.000 188.566 C 312.340 189.095,311.890 189.619,312.000 189.731 C 312.110 189.842,312.725 189.408,313.367 188.767 C 314.782 187.351,314.624 187.264,313.000 188.566 M85.245 191.995 C 86.839 193.752,88.233 195.100,88.343 194.991 C 88.452 194.881,88.018 194.209,87.377 193.496 C 84.504 190.299,83.008 188.800,82.690 188.800 C 82.500 188.800,83.650 190.238,85.245 191.995 M217.131 196.800 C 217.215 197.680,217.355 198.400,217.442 198.400 C 217.529 198.400,217.600 197.680,217.600 196.800 C 217.600 195.920,217.460 195.200,217.289 195.200 C 217.119 195.200,217.048 195.920,217.131 196.800 M58.166 196.900 C 58.295 197.175,58.511 197.715,58.646 198.100 C 58.782 198.485,59.037 198.800,59.212 198.800 C 59.387 198.800,59.327 198.260,59.078 197.600 C 58.828 196.940,58.469 196.400,58.279 196.400 C 58.089 196.400,58.038 196.625,58.166 196.900 M336.688 198.270 C 336.307 199.331,336.003 200.560,336.011 201.000 C 336.020 201.440,336.389 200.746,336.833 199.457 C 337.276 198.169,337.580 196.940,337.509 196.727 C 337.438 196.514,337.068 197.208,336.688 198.270 M92.400 199.489 C 92.400 199.992,93.543 200.990,93.812 200.721 C 93.918 200.615,93.644 200.202,93.202 199.802 C 92.761 199.403,92.400 199.262,92.400 199.489 M300.816 202.075 C 300.099 202.844,299.757 203.600,300.125 203.600 C 300.193 203.600,300.649 203.060,301.137 202.400 C 302.173 200.999,301.990 200.814,300.816 202.075 M96.000 203.102 C 96.000 203.322,96.270 203.726,96.600 204.000 C 96.935 204.278,97.200 204.321,97.200 204.098 C 97.200 203.878,96.930 203.474,96.600 203.200 C 96.265 202.922,96.000 202.879,96.000 203.102 M130.107 203.690 C 129.264 204.746,128.394 206.800,128.790 206.800 C 129.015 206.800,129.200 206.603,129.200 206.362 C 129.200 206.121,129.580 205.390,130.044 204.739 C 130.865 203.586,130.920 202.672,130.107 203.690 M298.086 205.054 C 297.583 205.574,297.330 206.000,297.524 206.000 C 297.948 206.000,299.397 204.455,299.164 204.251 C 299.074 204.172,298.589 204.533,298.086 205.054 M220.000 215.400 C 220.000 215.950,220.155 216.400,220.345 216.400 C 220.534 216.400,220.603 215.950,220.498 215.400 C 220.393 214.850,220.238 214.400,220.153 214.400 C 220.069 214.400,220.000 214.850,220.000 215.400 M287.800 216.000 C 287.402 216.440,287.256 216.800,287.476 216.800 C 287.696 216.800,288.202 216.440,288.600 216.000 C 288.998 215.560,289.144 215.200,288.924 215.200 C 288.704 215.200,288.198 215.560,287.800 216.000 M275.609 221.500 C 275.614 221.665,275.985 222.250,276.433 222.800 L 277.248 223.800 276.614 222.500 C 276.011 221.265,275.589 220.845,275.609 221.500 M221.206 222.633 C 221.209 223.055,221.395 223.670,221.618 224.000 C 221.915 224.438,221.952 224.276,221.756 223.400 C 221.427 221.929,221.198 221.610,221.206 222.633 M221.745 226.825 C 222.117 228.683,222.677 229.121,222.475 227.396 C 222.385 226.624,222.123 225.876,221.893 225.734 C 221.615 225.562,221.565 225.927,221.745 226.825 M222.400 231.576 C 222.400 232.029,222.580 232.400,222.800 232.400 C 223.020 232.400,223.200 232.141,223.200 231.824 C 223.200 231.507,223.020 231.136,222.800 231.000 C 222.580 230.864,222.400 231.123,222.400 231.576 M73.403 234.800 C 73.880 236.425,74.492 237.196,74.197 235.800 C 74.057 235.140,73.756 234.420,73.527 234.200 C 73.240 233.924,73.201 234.111,73.403 234.800 M223.240 235.676 C 223.359 237.246,223.920 238.216,223.960 236.924 C 223.982 236.222,223.820 235.536,223.600 235.400 C 223.380 235.264,223.218 235.388,223.240 235.676 M77.836 245.801 C 78.292 247.620,79.964 251.487,79.983 250.769 C 79.999 250.166,78.128 245.216,77.727 244.801 C 77.622 244.691,77.670 245.141,77.836 245.801 M224.846 246.000 C 224.827 246.770,224.987 247.670,225.200 248.000 C 225.687 248.754,225.687 247.122,225.200 245.600 C 224.907 244.684,224.877 244.717,224.846 246.000 M226.400 256.910 C 226.400 257.483,226.587 258.068,226.816 258.210 C 227.089 258.379,227.138 258.077,226.960 257.334 C 226.592 255.801,226.400 255.656,226.400 256.910 M312.432 259.320 C 312.414 259.716,312.125 260.571,311.790 261.220 C 311.454 261.869,311.350 262.400,311.559 262.400 C 312.043 262.400,312.929 259.753,312.664 259.097 C 312.549 258.811,312.450 258.906,312.432 259.320 M227.747 265.150 C 227.886 265.893,228.000 266.838,228.000 267.250 C 228.000 267.663,228.140 268.000,228.311 268.000 C 228.754 268.000,228.400 264.680,227.906 264.200 C 227.625 263.927,227.574 264.228,227.747 265.150 M228.901 271.000 C 228.905 271.880,228.987 272.193,229.083 271.695 C 229.179 271.198,229.175 270.478,229.075 270.095 C 228.975 269.713,228.896 270.120,228.901 271.000 M87.554 271.100 C 87.752 271.485,88.120 272.318,88.372 272.952 C 88.624 273.585,88.911 274.022,89.011 273.923 C 89.286 273.647,87.927 270.400,87.536 270.400 C 87.347 270.400,87.355 270.715,87.554 271.100 M229.701 276.600 C 229.705 277.480,229.787 277.793,229.883 277.295 C 229.979 276.798,229.975 276.078,229.875 275.695 C 229.775 275.313,229.696 275.720,229.701 276.600 M165.647 278.400 C 165.667 280.062,165.696 280.110,166.017 279.034 C 166.223 278.347,166.214 277.608,165.995 277.234 C 165.730 276.781,165.631 277.112,165.647 278.400 M90.400 278.172 C 90.400 278.467,92.305 283.429,93.135 285.295 C 93.501 286.118,93.939 286.793,94.108 286.795 C 94.278 286.798,94.077 286.125,93.663 285.300 C 93.249 284.475,92.511 282.587,92.024 281.104 C 91.292 278.878,90.400 277.267,90.400 278.172 M304.556 279.843 C 304.224 280.637,304.049 281.383,304.167 281.500 C 304.285 281.618,304.490 281.374,304.623 280.957 C 304.756 280.541,305.027 279.795,305.224 279.300 C 305.421 278.805,305.488 278.400,305.371 278.400 C 305.255 278.400,304.888 279.049,304.556 279.843 M230.440 282.276 C 230.418 282.978,230.580 283.664,230.800 283.800 C 231.260 284.084,231.260 283.436,230.800 282.000 C 230.494 281.045,230.478 281.057,230.440 282.276 M164.600 284.388 C 164.318 285.649,163.905 286.333,163.200 286.705 L 162.200 287.233 163.196 287.117 C 164.372 286.979,165.312 285.309,165.125 283.692 C 165.019 282.774,164.936 282.885,164.600 284.388 M302.984 283.443 C 302.855 283.859,302.462 284.786,302.110 285.502 C 301.759 286.219,301.590 286.924,301.736 287.069 C 301.881 287.214,302.000 287.033,302.000 286.667 C 302.000 286.300,302.172 286.000,302.381 286.000 C 302.786 286.000,303.704 283.171,303.399 282.865 C 303.300 282.766,303.113 283.026,302.984 283.443 M231.520 286.841 C 232.134 287.502,293.644 287.890,298.600 287.265 C 300.393 287.039,289.001 286.890,266.923 286.852 C 247.961 286.820,232.121 286.678,231.723 286.538 C 231.119 286.324,231.086 286.374,231.520 286.841 M97.800 287.197 C 99.544 287.645,114.000 287.675,114.000 287.230 C 114.000 287.015,110.366 286.867,105.300 286.875 C 100.427 286.883,97.128 287.025,97.800 287.197 M117.600 287.197 C 118.312 287.660,150.376 287.686,153.400 287.225 C 154.500 287.058,146.760 286.895,136.200 286.863 C 123.572 286.825,117.205 286.940,117.600 287.197 M157.305 287.087 C 157.914 287.179,158.814 287.177,159.305 287.082 C 159.797 286.987,159.300 286.911,158.200 286.914 C 157.100 286.917,156.697 286.995,157.305 287.087 M93.867 305.466 C 93.720 305.613,93.621 306.288,93.646 306.967 C 93.678 307.806,93.754 307.944,93.885 307.400 C 93.991 306.960,94.219 306.450,94.393 306.266 C 94.748 305.890,264.279 305.636,286.701 305.979 C 296.288 306.125,301.156 306.064,301.067 305.800 C 300.916 305.348,94.319 305.014,93.867 305.466 M301.483 308.900 C 301.370 309.395,301.415 311.060,301.582 312.600 L 301.886 315.400 301.943 311.700 C 302.000 308.005,301.868 307.202,301.483 308.900 M93.766 324.000 C 93.766 328.070,93.825 329.735,93.898 327.700 C 93.971 325.665,93.971 322.335,93.898 320.300 C 93.825 318.265,93.766 319.930,93.766 324.000 M93.654 336.857 C 93.589 338.622,93.980 338.822,97.333 338.739 L 99.800 338.678 97.320 338.439 C 94.615 338.178,94.159 337.907,93.888 336.400 C 93.754 335.650,93.695 335.764,93.654 336.857 M111.528 338.700 C 116.878 338.763,125.518 338.763,130.728 338.700 C 135.937 338.636,131.560 338.585,121.000 338.585 C 110.440 338.585,106.177 338.637,111.528 338.700 M142.515 338.696 C 143.788 338.776,145.768 338.775,146.915 338.694 C 148.062 338.614,147.020 338.549,144.600 338.550 C 142.180 338.551,141.242 338.616,142.515 338.696 M187.500 338.700 C 206.695 338.757,238.105 338.757,257.300 338.700 C 276.495 338.643,260.790 338.596,222.400 338.596 C 184.010 338.596,168.305 338.643,187.500 338.700 M293.900 338.693 C 294.835 338.777,296.365 338.777,297.300 338.693 C 298.235 338.609,297.470 338.540,295.600 338.540 C 293.730 338.540,292.965 338.609,293.900 338.693 " stroke="none" fill="#bcac94" fill-rule="evenodd"></path><path id="path4" d="M197.293 44.518 C 196.922 45.533,196.926 45.668,197.312 45.165 C 197.580 44.816,198.025 44.606,198.300 44.698 C 198.956 44.919,198.943 44.217,198.281 43.667 C 197.882 43.336,197.653 43.534,197.293 44.518 M198.994 46.082 C 199.260 47.436,199.921 49.200,200.162 49.200 C 200.382 49.200,199.853 47.381,199.232 46.000 L 198.782 45.000 198.994 46.082 M196.100 47.493 C 195.825 48.079,195.614 48.929,195.632 49.380 C 195.653 49.930,195.728 50.003,195.861 49.600 C 195.970 49.270,196.246 48.613,196.476 48.139 C 196.705 47.666,196.827 47.087,196.746 46.853 C 196.666 46.618,196.375 46.906,196.100 47.493 M200.668 51.506 C 200.794 52.005,201.055 52.510,201.248 52.630 C 201.796 52.968,201.662 52.236,201.020 51.376 C 200.460 50.627,200.448 50.632,200.668 51.506 M193.385 56.600 C 193.215 57.040,192.989 57.580,192.882 57.800 C 192.775 58.020,193.004 57.903,193.390 57.539 C 193.777 57.176,194.003 56.636,193.893 56.339 C 193.752 55.959,193.602 56.036,193.385 56.600 M202.400 56.657 C 202.400 57.091,202.664 57.796,202.987 58.224 C 203.525 58.934,203.542 58.885,203.199 57.646 C 202.747 56.010,202.400 55.581,202.400 56.657 M175.046 61.425 C 174.911 61.775,174.601 61.924,174.341 61.764 C 174.054 61.586,173.984 61.651,174.159 61.934 C 174.411 62.342,176.400 61.473,176.400 60.954 C 176.400 60.495,175.249 60.895,175.046 61.425 M179.200 65.767 C 179.200 66.012,181.834 67.600,182.240 67.600 C 182.430 67.600,181.923 67.150,181.114 66.600 C 179.688 65.631,179.200 65.419,179.200 65.767 M208.469 71.639 C 207.750 72.789,208.022 72.825,209.086 71.720 C 209.576 71.210,209.753 70.800,209.482 70.800 C 209.213 70.800,208.757 71.178,208.469 71.639 M186.865 76.217 C 186.609 76.778,186.409 77.634,186.419 78.119 C 186.431 78.681,186.659 78.371,187.047 77.261 C 187.721 75.337,187.595 74.614,186.865 76.217 M209.600 79.124 C 209.600 79.301,209.885 79.796,210.233 80.224 C 210.812 80.934,210.846 80.938,210.633 80.267 C 210.505 79.864,210.400 79.369,210.400 79.167 C 210.400 78.965,210.220 78.800,210.000 78.800 C 209.780 78.800,209.600 78.946,209.600 79.124 M196.800 80.300 C 196.800 80.465,197.233 80.600,197.762 80.600 C 198.291 80.600,198.640 80.465,198.538 80.300 C 198.436 80.135,198.003 80.000,197.576 80.000 C 197.149 80.000,196.800 80.135,196.800 80.300 M184.687 83.046 C 184.249 84.376,184.222 84.739,184.589 84.346 C 185.055 83.846,185.769 81.200,185.437 81.200 C 185.359 81.200,185.021 82.031,184.687 83.046 M202.571 83.009 C 202.995 83.329,203.440 83.494,203.559 83.374 C 203.810 83.123,202.794 82.409,202.200 82.419 C 201.980 82.422,202.147 82.688,202.571 83.009 M191.784 83.627 C 191.360 84.313,191.739 84.380,192.577 83.767 C 193.226 83.293,193.246 83.200,192.700 83.200 C 192.341 83.200,191.929 83.392,191.784 83.627 M198.984 83.627 C 198.839 83.861,198.828 84.161,198.960 84.293 C 199.092 84.425,199.200 84.295,199.200 84.005 C 199.200 83.636,199.472 83.706,200.100 84.238 L 201.000 85.000 200.238 84.100 C 199.362 83.065,199.337 83.055,198.984 83.627 M211.886 86.006 C 212.195 87.190,212.717 87.345,212.496 86.188 C 212.392 85.645,212.165 85.200,211.991 85.200 C 211.817 85.200,211.770 85.563,211.886 86.006 M195.906 87.300 C 195.737 88.924,195.817 89.529,196.156 89.167 C 196.505 88.793,196.751 85.600,196.430 85.600 C 196.240 85.600,196.004 86.365,195.906 87.300 M200.299 91.928 C 200.547 94.704,200.837 96.000,201.208 96.000 C 201.433 96.000,201.426 95.593,201.190 94.974 C 200.976 94.410,200.800 93.250,200.800 92.398 C 200.800 91.545,200.658 90.759,200.484 90.652 C 200.310 90.544,200.226 91.118,200.299 91.928 M195.119 94.000 C 194.966 95.210,194.745 96.740,194.627 97.400 C 194.508 98.070,194.681 97.804,195.018 96.800 C 195.350 95.810,195.572 94.280,195.510 93.400 C 195.403 91.877,195.385 91.906,195.119 94.000 M208.400 99.323 C 208.400 99.900,210.185 103.200,210.497 103.200 C 210.682 103.200,210.344 102.345,209.746 101.300 C 208.493 99.112,208.400 98.976,208.400 99.323 M185.632 102.731 C 185.100 103.868,184.761 104.894,184.878 105.012 C 184.996 105.129,185.331 104.635,185.623 103.913 C 185.916 103.191,186.318 102.488,186.517 102.352 C 186.716 102.216,186.816 101.780,186.739 101.384 C 186.646 100.902,186.280 101.348,185.632 102.731 M202.000 103.924 C 202.000 104.101,202.253 104.593,202.562 105.016 C 203.088 105.735,203.111 105.714,202.916 104.692 C 202.729 103.718,202.000 103.106,202.000 103.924 M181.680 110.480 C 181.416 110.744,181.200 111.179,181.200 111.447 C 181.200 111.714,180.993 112.002,180.740 112.087 C 180.487 112.171,180.356 112.469,180.450 112.749 C 180.543 113.030,181.032 112.526,181.535 111.629 C 182.478 109.953,182.517 109.643,181.680 110.480 M192.286 110.673 C 191.880 111.355,190.738 117.950,190.870 118.854 C 190.945 119.374,191.243 118.450,191.531 116.800 C 191.820 115.150,192.252 113.124,192.493 112.298 C 192.890 110.930,192.757 109.881,192.286 110.673 M203.804 112.400 C 203.880 113.610,204.127 115.410,204.352 116.400 L 204.760 118.200 204.579 116.200 C 204.480 115.100,204.233 113.300,204.031 112.200 L 203.664 110.200 203.804 112.400 M216.059 113.844 C 216.673 115.191,217.834 117.434,218.003 117.600 C 218.115 117.710,218.732 118.790,219.374 120.000 C 222.136 125.200,222.880 126.400,223.345 126.400 C 223.539 126.400,223.512 126.175,223.285 125.900 C 222.761 125.267,220.446 121.111,218.400 117.130 C 217.532 115.442,216.613 113.932,216.359 113.775 C 216.104 113.617,215.969 113.649,216.059 113.844 M177.170 118.066 C 176.898 118.580,176.413 119.405,176.092 119.900 C 175.716 120.480,175.667 120.800,175.954 120.800 C 176.199 120.800,176.400 120.603,176.400 120.362 C 176.400 120.121,176.780 119.390,177.244 118.739 C 177.708 118.087,177.992 117.459,177.876 117.343 C 177.760 117.227,177.442 117.552,177.170 118.066 M205.111 121.300 C 205.328 124.102,205.504 124.341,205.554 121.900 C 205.579 120.635,205.460 119.600,205.289 119.600 C 205.119 119.600,205.038 120.365,205.111 121.300 M190.496 121.700 C 190.055 122.250,189.795 123.687,189.210 128.800 C 188.996 130.670,188.553 133.370,188.225 134.800 C 187.519 137.874,187.455 138.710,187.966 138.180 C 188.167 137.971,188.617 135.910,188.966 133.600 C 189.314 131.290,189.806 128.050,190.059 126.400 C 190.311 124.750,190.545 123.127,190.578 122.793 C 190.611 122.459,190.775 121.964,190.943 121.693 C 191.340 121.050,191.014 121.055,190.496 121.700 M173.047 125.703 C 172.193 127.296,171.762 128.330,172.089 128.000 C 172.952 127.131,175.319 122.800,174.929 122.803 C 174.748 122.804,173.901 124.109,173.047 125.703 M205.628 124.700 C 205.738 125.873,206.346 126.526,206.372 125.500 C 206.387 124.895,206.220 124.400,206.000 124.400 C 205.780 124.400,205.613 124.535,205.628 124.700 M206.723 129.300 C 206.634 129.575,206.681 130.430,206.828 131.200 C 207.083 132.540,207.097 132.519,207.147 130.700 C 207.199 128.831,207.043 128.316,206.723 129.300 M169.237 132.658 C 168.550 133.927,168.045 135.136,168.115 135.346 C 168.185 135.556,168.823 134.594,169.532 133.208 C 171.161 130.025,170.913 129.563,169.237 132.658 M226.133 132.171 C 226.385 132.705,226.655 133.078,226.732 133.001 C 226.981 132.753,226.358 131.200,226.011 131.200 C 225.826 131.200,225.881 131.637,226.133 132.171 M359.183 138.082 L 357.870 139.800 359.415 138.313 C 360.265 137.496,360.856 136.722,360.728 136.595 C 360.601 136.467,359.905 137.136,359.183 138.082 M35.600 136.973 C 35.600 137.155,36.230 138.000,37.000 138.853 C 37.770 139.705,38.400 140.167,38.400 139.880 C 38.400 139.592,37.770 138.746,37.000 138.000 C 36.230 137.254,35.600 136.792,35.600 136.973 M165.282 140.027 C 164.784 140.892,164.521 141.600,164.697 141.600 C 165.080 141.600,166.604 138.870,166.358 138.624 C 166.264 138.530,165.780 139.162,165.282 140.027 M208.282 141.200 C 208.412 142.630,208.668 144.160,208.850 144.600 C 209.042 145.062,209.077 144.301,208.934 142.800 C 208.798 141.370,208.542 139.840,208.366 139.400 C 208.190 138.958,208.152 139.764,208.282 141.200 M187.200 141.350 C 187.200 141.899,187.045 142.765,186.855 143.274 C 186.331 144.678,185.907 148.319,186.351 147.600 C 186.927 146.667,187.918 140.796,187.538 140.562 C 187.352 140.447,187.200 140.802,187.200 141.350 M231.601 141.920 C 231.600 142.463,232.733 144.853,233.156 145.200 C 233.290 145.310,234.115 146.795,234.989 148.500 C 235.862 150.205,236.724 151.600,236.903 151.600 C 237.082 151.600,236.287 149.845,235.136 147.700 C 232.381 142.563,231.603 141.292,231.601 141.920 M163.282 143.729 C 162.777 144.680,161.497 146.916,160.436 148.699 C 158.366 152.179,157.795 153.374,158.371 153.018 C 158.715 152.806,160.746 149.389,163.555 144.300 C 164.253 143.035,164.683 142.000,164.511 142.000 C 164.339 142.000,163.786 142.778,163.282 143.729 M37.407 145.479 C 38.082 147.093,38.400 147.558,38.400 146.928 C 38.400 146.431,37.209 144.000,36.965 144.000 C 36.868 144.000,37.067 144.666,37.407 145.479 M45.200 147.502 C 45.200 147.722,45.470 148.126,45.800 148.400 C 46.135 148.678,46.400 148.721,46.400 148.498 C 46.400 148.278,46.130 147.874,45.800 147.600 C 45.465 147.322,45.200 147.279,45.200 147.502 M356.927 148.900 C 356.431 149.675,355.553 152.090,355.366 153.200 C 355.173 154.341,355.344 154.006,356.624 150.738 C 357.502 148.498,357.612 147.831,356.927 148.900 M185.674 150.282 C 185.643 151.113,185.440 152.245,185.223 152.797 C 185.006 153.348,184.646 155.420,184.422 157.400 C 184.199 159.380,183.749 162.440,183.422 164.200 C 183.095 165.960,182.822 168.153,182.814 169.074 C 182.806 169.995,182.637 171.176,182.438 171.700 C 182.239 172.224,181.967 173.720,181.833 175.026 C 181.479 178.472,182.182 176.515,182.776 172.400 C 183.046 170.530,183.548 167.290,183.893 165.200 C 184.238 163.110,184.645 160.230,184.798 158.800 C 184.951 157.370,185.402 154.707,185.800 152.882 C 186.278 150.690,186.389 149.429,186.127 149.167 C 185.865 148.905,185.711 149.284,185.674 150.282 M48.413 151.024 C 48.406 151.256,48.664 151.796,48.987 152.224 C 49.310 152.651,49.580 152.809,49.587 152.576 C 49.594 152.344,49.336 151.804,49.013 151.376 C 48.690 150.949,48.420 150.791,48.413 151.024 M210.194 153.344 C 210.313 154.193,210.580 155.183,210.787 155.544 C 211.048 155.996,211.092 155.702,210.928 154.600 C 210.798 153.720,210.531 152.730,210.335 152.400 C 210.105 152.013,210.055 152.347,210.194 153.344 M236.895 152.300 C 237.754 154.108,238.187 154.800,238.461 154.800 C 238.640 154.800,238.487 154.170,238.119 153.400 C 237.752 152.630,237.295 152.000,237.102 152.000 C 236.910 152.000,236.817 152.135,236.895 152.300 M51.146 154.200 C 51.973 155.692,53.498 157.289,53.733 156.908 C 53.862 156.700,53.232 155.826,52.334 154.965 C 51.437 154.104,50.902 153.760,51.146 154.200 M156.177 156.305 C 155.505 157.567,154.095 160.175,153.045 162.100 C 151.994 164.025,151.285 165.599,151.468 165.597 C 151.650 165.596,152.448 164.381,153.241 162.897 C 154.033 161.414,155.347 158.966,156.160 157.458 C 156.973 155.950,157.585 154.557,157.519 154.362 C 157.454 154.168,156.850 155.042,156.177 156.305 M238.803 155.538 C 238.801 155.834,239.134 156.554,239.543 157.138 C 239.952 157.722,241.247 160.000,242.420 162.200 C 243.594 164.400,245.223 167.301,246.040 168.647 C 246.858 169.992,248.007 172.110,248.595 173.352 C 249.182 174.594,251.449 178.854,253.632 182.818 C 255.814 186.782,257.600 190.103,257.600 190.198 C 257.600 190.294,258.590 192.005,259.800 194.000 C 261.010 195.995,262.000 197.727,262.000 197.847 C 262.000 197.967,262.658 199.176,263.463 200.533 C 264.268 201.890,265.643 204.350,266.518 206.000 C 269.196 211.044,272.457 216.400,272.851 216.400 C 273.057 216.400,272.619 215.453,271.878 214.296 C 271.138 213.138,269.039 209.403,267.214 205.996 C 265.389 202.588,263.650 199.516,263.348 199.169 C 263.047 198.821,262.800 198.424,262.800 198.286 C 262.800 198.148,262.230 197.082,261.533 195.918 C 259.802 193.023,254.460 183.267,251.286 177.200 C 249.847 174.450,247.649 170.400,246.401 168.200 C 245.154 166.000,243.300 162.670,242.281 160.800 C 240.034 156.675,238.806 154.817,238.803 155.538 M340.808 158.192 C 339.841 159.177,339.138 160.072,339.247 160.180 C 339.355 160.288,340.311 159.482,341.372 158.388 C 342.433 157.295,343.136 156.400,342.934 156.400 C 342.732 156.400,341.775 157.206,340.808 158.192 M54.195 157.600 C 54.991 158.968,59.282 164.000,59.653 164.000 C 59.875 164.000,58.944 162.656,57.585 161.014 C 55.083 157.989,53.487 156.381,54.195 157.600 M351.439 161.863 C 350.594 164.029,349.552 166.672,349.123 167.739 C 348.695 168.805,348.436 169.770,348.549 169.882 C 348.752 170.085,349.630 168.219,350.204 166.365 C 350.368 165.834,351.120 163.901,351.874 162.068 C 352.628 160.235,353.185 158.554,353.110 158.331 C 353.036 158.109,352.284 159.698,351.439 161.863 M211.513 160.913 C 211.619 162.061,211.952 164.080,212.252 165.400 L 212.798 167.800 212.586 165.600 C 212.116 160.731,211.886 159.177,211.610 159.006 C 211.450 158.908,211.407 159.766,211.513 160.913 M43.212 159.276 C 43.263 159.819,48.364 172.085,48.380 171.703 C 48.391 171.429,47.753 169.539,46.962 167.503 C 46.171 165.466,45.159 162.852,44.713 161.693 C 44.077 160.043,43.142 158.537,43.212 159.276 M60.388 165.178 C 60.846 166.034,61.607 166.634,61.587 166.124 C 61.570 165.677,60.573 164.400,60.242 164.400 C 60.093 164.400,60.159 164.750,60.388 165.178 M332.634 167.047 C 331.332 168.451,330.357 169.690,330.466 169.799 C 330.661 169.995,334.767 165.875,335.349 164.900 C 336.061 163.706,334.822 164.686,332.634 167.047 M62.006 166.561 C 62.003 166.760,62.937 167.930,64.083 169.161 C 70.592 176.157,73.208 178.784,72.642 177.756 C 71.910 176.429,62.016 166.014,62.006 166.561 M148.629 170.227 C 147.824 171.693,147.226 173.078,147.302 173.305 C 147.377 173.532,148.122 172.418,148.957 170.829 C 150.878 167.173,150.595 166.651,148.629 170.227 M213.089 171.094 C 213.217 172.362,213.560 174.120,213.851 175.000 C 214.379 176.593,214.381 176.593,214.177 175.200 C 214.064 174.430,213.866 172.762,213.737 171.494 C 213.608 170.225,213.357 169.097,213.180 168.987 C 213.002 168.878,212.961 169.825,213.089 171.094 M328.063 172.018 C 327.124 173.108,326.512 174.000,326.703 174.000 C 327.197 174.000,329.200 171.844,329.200 171.311 C 329.200 171.067,329.425 170.786,329.700 170.688 C 329.975 170.590,330.103 170.403,329.985 170.273 C 329.867 170.143,329.002 170.928,328.063 172.018 M347.632 171.139 C 347.395 171.584,347.207 172.274,347.216 172.674 C 347.225 173.108,347.468 172.854,347.822 172.039 C 348.470 170.545,348.323 169.848,347.632 171.139 M344.595 178.735 C 342.520 184.004,342.126 185.180,342.587 184.737 C 343.106 184.236,347.112 173.993,346.851 173.832 C 346.707 173.743,345.692 175.949,344.595 178.735 M146.281 174.300 C 146.189 174.465,145.602 175.488,144.976 176.574 C 144.350 177.659,144.040 178.423,144.287 178.270 C 144.964 177.852,147.249 174.000,146.820 174.000 C 146.615 174.000,146.372 174.135,146.281 174.300 M323.568 177.056 C 322.645 178.060,322.641 178.087,323.478 177.652 C 324.406 177.169,324.995 176.462,324.708 176.175 C 324.614 176.080,324.101 176.477,323.568 177.056 M50.411 176.847 C 50.399 177.568,51.949 181.588,52.467 182.180 C 53.105 182.908,52.804 181.787,51.611 178.988 C 50.957 177.455,50.417 176.491,50.411 176.847 M181.076 179.300 C 180.715 182.291,179.240 191.345,178.844 193.000 C 178.633 193.880,178.349 195.680,178.211 197.000 C 178.074 198.320,177.629 201.020,177.223 203.000 C 176.372 207.151,175.188 214.314,174.778 217.800 C 174.623 219.120,174.280 221.280,174.016 222.600 C 173.752 223.920,173.385 226.170,173.200 227.600 C 172.660 231.783,171.634 238.362,171.018 241.600 C 170.705 243.250,170.336 245.680,170.200 247.000 C 170.064 248.320,169.682 250.885,169.352 252.700 C 169.022 254.515,168.808 256.675,168.876 257.500 C 168.951 258.410,169.364 256.485,169.927 252.600 C 170.813 246.478,171.648 241.240,172.987 233.400 C 173.326 231.420,173.783 228.365,174.003 226.610 C 174.223 224.856,174.489 223.146,174.593 222.810 C 174.790 222.177,176.277 212.653,176.781 208.800 C 176.939 207.590,177.450 204.620,177.915 202.200 C 178.667 198.292,179.403 193.867,180.846 184.600 C 181.086 183.060,181.444 181.278,181.641 180.640 C 182.102 179.150,182.102 177.600,181.640 177.600 C 181.442 177.600,181.188 178.365,181.076 179.300 M319.528 181.445 C 318.079 183.180,316.263 185.275,315.493 186.100 C 314.722 186.925,314.331 187.600,314.623 187.600 C 314.916 187.600,315.399 187.251,315.698 186.824 C 316.578 185.568,320.104 181.491,321.335 180.306 C 321.960 179.705,322.402 179.005,322.317 178.751 C 322.232 178.497,320.977 179.709,319.528 181.445 M74.268 179.939 C 74.364 180.304,75.765 181.920,77.382 183.529 C 78.999 185.138,80.727 186.982,81.221 187.627 C 81.715 188.272,82.286 188.800,82.489 188.800 C 83.019 188.800,81.707 187.224,77.653 182.990 C 75.696 180.947,74.173 179.574,74.268 179.939 M214.620 181.057 C 214.991 183.610,215.200 183.766,215.200 181.490 C 215.200 180.477,215.006 179.527,214.769 179.381 C 214.470 179.196,214.424 179.708,214.620 181.057 M142.109 182.075 C 141.628 183.024,139.580 186.770,137.558 190.400 C 131.135 201.930,130.467 203.200,130.832 203.200 C 131.028 203.200,131.754 202.075,132.445 200.700 C 133.136 199.325,134.011 197.750,134.390 197.200 C 134.769 196.650,135.774 194.850,136.624 193.200 C 137.474 191.550,138.647 189.390,139.231 188.400 C 141.295 184.902,143.225 181.074,143.105 180.714 C 143.038 180.514,142.590 181.127,142.109 182.075 M340.666 188.100 C 338.857 193.146,338.269 194.636,337.951 194.980 C 337.758 195.189,337.606 195.819,337.613 196.380 C 337.624 197.211,337.767 197.066,338.386 195.600 C 340.694 190.128,341.891 186.780,341.602 186.601 C 341.422 186.490,341.001 187.165,340.666 188.100 M54.817 188.256 C 54.808 188.507,55.156 189.497,55.591 190.456 C 56.058 191.484,56.379 191.872,56.374 191.400 C 56.366 190.550,54.845 187.481,54.817 188.256 M216.260 190.981 C 216.621 194.388,217.253 196.061,216.975 192.873 C 216.853 191.483,216.586 189.953,216.381 189.473 C 216.126 188.876,216.087 189.353,216.260 190.981 M310.389 191.500 C 309.677 192.325,308.269 193.883,307.261 194.962 C 306.253 196.041,305.678 196.841,305.983 196.739 C 306.730 196.490,312.614 190.000,312.093 190.000 C 311.867 190.000,311.100 190.675,310.389 191.500 M56.719 192.615 C 56.581 192.752,56.785 193.573,57.172 194.437 C 58.056 196.411,58.484 196.869,58.028 195.354 C 57.395 193.246,56.972 192.361,56.719 192.615 M88.400 195.055 C 88.400 195.527,90.784 197.750,91.028 197.506 C 91.116 197.417,90.561 196.737,89.794 195.994 C 89.027 195.251,88.400 194.829,88.400 195.055 M303.968 198.256 C 303.045 199.260,303.041 199.287,303.878 198.852 C 304.806 198.369,305.395 197.662,305.108 197.375 C 305.014 197.280,304.501 197.677,303.968 198.256 M217.562 197.997 C 217.328 198.613,218.578 206.311,218.976 206.710 C 219.351 207.084,219.229 205.712,218.621 202.683 C 218.302 201.097,217.985 199.260,217.915 198.600 C 217.840 197.880,217.699 197.639,217.562 197.997 M59.800 201.100 C 60.318 202.365,61.069 204.254,61.470 205.299 C 61.872 206.343,62.332 207.198,62.494 207.199 C 62.656 207.199,62.414 206.255,61.956 205.100 C 61.498 203.945,60.768 202.055,60.333 200.900 C 59.898 199.745,59.389 198.800,59.201 198.800 C 59.013 198.800,59.283 199.835,59.800 201.100 M301.999 200.602 C 301.483 201.151,301.154 201.600,301.269 201.600 C 301.666 201.600,303.327 199.994,303.132 199.799 C 303.025 199.691,302.514 200.052,301.999 200.602 M94.596 201.996 C 95.226 202.654,95.831 203.103,95.939 202.994 C 96.203 202.730,94.370 200.800,93.855 200.800 C 93.633 200.800,93.966 201.338,94.596 201.996 M335.120 202.319 C 333.748 205.309,332.800 207.563,332.800 207.834 C 332.800 207.987,332.465 208.852,332.055 209.756 C 331.019 212.040,329.956 215.289,330.173 215.506 C 330.360 215.693,331.600 212.962,331.600 212.362 C 331.600 212.175,331.945 211.252,332.366 210.311 C 334.713 205.074,336.075 201.628,335.946 201.257 C 335.866 201.026,335.494 201.504,335.120 202.319 M97.200 204.233 C 97.200 205.285,111.222 220.889,111.727 220.400 C 111.841 220.289,110.160 218.309,107.992 216.000 C 105.824 213.690,103.544 211.258,102.925 210.596 C 102.306 209.934,100.908 208.314,99.819 206.996 C 98.729 205.678,97.694 204.429,97.519 204.220 C 97.319 203.982,97.200 203.987,97.200 204.233 M293.009 210.600 C 290.649 213.130,288.861 215.200,289.036 215.200 C 289.210 215.200,290.319 214.165,291.500 212.900 C 292.680 211.635,294.665 209.565,295.911 208.300 C 297.156 207.035,297.978 206.000,297.737 206.000 C 297.496 206.000,295.368 208.070,293.009 210.600 M127.457 208.250 C 126.539 210.175,126.878 210.412,127.950 208.594 C 128.891 207.000,128.949 206.800,128.474 206.800 C 128.295 206.800,127.837 207.452,127.457 208.250 M63.395 210.100 C 63.903 211.475,64.520 213.050,64.768 213.600 L 65.217 214.600 65.035 213.600 C 64.709 211.818,63.139 207.600,62.800 207.600 C 62.619 207.600,62.887 208.725,63.395 210.100 M219.140 207.793 C 219.004 207.929,219.048 208.706,219.237 209.520 C 219.426 210.334,219.585 211.664,219.590 212.476 C 219.596 213.288,219.767 214.056,219.972 214.183 C 220.193 214.319,220.257 213.480,220.131 212.106 C 219.865 209.223,219.462 207.471,219.140 207.793 M125.232 212.234 C 125.214 212.472,124.022 214.609,122.583 216.983 C 121.143 219.357,120.049 221.382,120.151 221.484 C 120.253 221.586,120.646 221.159,121.025 220.535 C 121.404 219.911,122.015 218.950,122.382 218.400 C 124.062 215.884,125.645 212.746,125.463 212.296 C 125.350 212.014,125.250 211.987,125.232 212.234 M65.868 216.300 C 67.159 219.389,67.325 219.811,67.417 220.240 C 67.616 221.168,68.769 222.972,68.784 222.380 C 68.793 222.039,68.616 221.576,68.391 221.351 C 68.165 221.125,67.903 220.594,67.806 220.171 C 67.710 219.747,67.348 218.680,67.001 217.800 C 66.655 216.920,66.267 215.885,66.139 215.500 C 66.011 215.115,65.757 214.800,65.574 214.800 C 65.391 214.800,65.523 215.475,65.868 216.300 M329.321 216.900 C 329.096 217.395,328.238 219.510,327.414 221.600 C 326.590 223.690,325.602 226.120,325.220 227.000 C 324.838 227.880,324.182 229.723,323.763 231.097 C 323.343 232.470,322.865 233.595,322.700 233.597 C 322.535 233.598,322.412 234.005,322.426 234.500 C 322.459 235.677,322.931 234.678,325.397 228.200 C 327.282 223.250,328.335 220.642,329.637 217.700 C 330.051 216.765,330.241 216.000,330.059 216.000 C 329.877 216.000,329.545 216.405,329.321 216.900 M285.741 218.134 C 283.160 221.150,282.819 221.600,283.114 221.600 C 283.283 221.600,284.373 220.520,285.535 219.200 C 286.697 217.880,287.475 216.800,287.265 216.800 C 287.055 216.800,286.369 217.400,285.741 218.134 M220.600 218.800 C 220.756 219.570,221.049 220.374,221.250 220.588 C 221.472 220.823,221.513 220.431,221.355 219.588 C 221.211 218.824,220.919 218.020,220.705 217.800 C 220.452 217.540,220.415 217.890,220.600 218.800 M273.600 217.959 C 273.600 218.157,274.048 219.102,274.595 220.059 C 275.786 222.141,275.943 221.441,274.792 219.184 C 274.006 217.644,273.600 217.226,273.600 217.959 M114.456 223.626 C 116.936 226.241,117.765 226.367,118.845 224.291 L 119.309 223.400 118.329 224.300 C 116.981 225.537,116.779 225.476,114.714 223.200 C 113.717 222.100,112.732 221.200,112.527 221.200 C 112.322 221.200,113.190 222.292,114.456 223.626 M69.200 224.124 C 69.200 224.280,70.010 226.304,71.000 228.622 C 71.990 230.939,72.800 233.098,72.800 233.418 C 72.800 233.738,72.967 234.000,73.172 234.000 C 73.658 234.000,73.246 232.646,71.409 228.200 C 70.067 224.954,69.200 223.353,69.200 224.124 M279.811 224.622 C 279.378 224.949,278.778 225.124,278.478 225.009 C 278.171 224.891,278.002 225.007,278.092 225.275 C 278.369 226.106,278.968 226.027,280.162 224.999 C 281.406 223.930,281.126 223.628,279.811 224.622 M221.600 224.953 C 221.600 225.283,221.780 225.664,222.000 225.800 C 222.220 225.936,222.400 225.777,222.400 225.447 C 222.400 225.117,222.220 224.736,222.000 224.600 C 221.780 224.464,221.600 224.623,221.600 224.953 M222.428 229.676 C 222.413 230.268,222.580 230.864,222.800 231.000 C 223.278 231.295,223.278 230.511,222.800 229.400 C 222.493 228.686,222.453 228.715,222.428 229.676 M222.846 232.800 C 222.865 233.130,223.024 233.850,223.200 234.400 L 223.520 235.400 223.554 234.400 C 223.573 233.850,223.413 233.130,223.200 232.800 C 222.855 232.267,222.816 232.267,222.846 232.800 M320.634 238.615 C 320.023 240.147,319.166 242.300,318.728 243.400 C 317.633 246.153,317.390 247.097,317.906 246.600 C 318.135 246.380,318.601 245.390,318.943 244.400 C 319.284 243.410,320.116 241.264,320.792 239.632 C 321.468 238.000,321.959 236.477,321.882 236.247 C 321.806 236.018,321.244 237.083,320.634 238.615 M74.428 237.076 C 74.413 237.558,74.580 238.064,74.800 238.200 C 75.273 238.492,75.273 238.101,74.800 237.000 C 74.469 236.229,74.455 236.231,74.428 237.076 M223.893 239.700 C 224.181 241.952,224.400 242.121,224.400 240.090 C 224.400 239.187,224.237 238.347,224.038 238.224 C 223.832 238.096,223.769 238.730,223.893 239.700 M76.127 241.962 C 76.827 243.730,77.457 245.009,77.528 244.805 C 77.720 244.245,75.973 239.675,75.376 239.180 C 75.089 238.942,75.427 240.194,76.127 241.962 M224.504 243.559 C 224.845 244.470,225.043 244.668,225.138 244.194 C 225.215 243.815,224.991 243.220,224.642 242.871 C 224.063 242.291,224.051 242.351,224.504 243.559 M317.078 248.083 C 314.768 253.501,314.123 255.200,314.378 255.200 C 314.760 255.200,317.763 248.030,317.494 247.761 C 317.387 247.653,317.200 247.798,317.078 248.083 M225.506 248.300 C 225.428 248.465,225.482 249.320,225.625 250.200 L 225.886 251.800 225.943 249.900 C 225.996 248.133,225.845 247.581,225.506 248.300 M80.324 252.600 C 80.526 253.040,80.792 253.670,80.914 254.000 C 81.107 254.518,81.141 254.515,81.168 253.976 C 81.186 253.634,80.920 253.004,80.578 252.576 C 79.966 251.812,79.962 251.813,80.324 252.600 M226.249 254.700 C 226.625 256.270,226.800 256.323,226.800 254.867 C 226.800 254.170,226.617 253.600,226.392 253.600 C 226.150 253.600,226.092 254.047,226.249 254.700 M81.622 255.313 C 81.594 256.210,82.738 258.995,83.019 258.714 C 83.134 258.599,82.872 257.627,82.436 256.553 C 82.000 255.479,81.634 254.921,81.622 255.313 M313.600 256.296 C 313.600 256.705,313.403 257.237,313.162 257.478 C 312.922 257.718,312.787 258.199,312.862 258.546 C 312.945 258.925,313.267 258.544,313.669 257.593 C 314.048 256.693,314.178 255.910,313.969 255.781 C 313.766 255.655,313.600 255.887,313.600 256.296 M227.034 260.400 C 227.414 263.528,228.019 264.746,227.729 261.800 C 227.599 260.480,227.330 259.130,227.130 258.800 C 226.903 258.425,226.867 259.025,227.034 260.400 M84.159 262.385 C 84.842 264.137,85.457 265.404,85.528 265.202 C 85.715 264.661,83.980 260.081,83.408 259.606 C 83.138 259.383,83.476 260.633,84.159 262.385 M167.834 263.500 C 167.462 265.865,166.908 269.330,166.603 271.200 C 165.716 276.635,165.707 276.726,166.001 277.202 C 166.156 277.452,166.391 276.789,166.523 275.728 C 166.773 273.733,167.607 268.239,168.531 262.500 C 168.824 260.685,168.939 259.200,168.787 259.200 C 168.635 259.200,168.206 261.135,167.834 263.500 M310.846 263.876 C 310.821 264.358,310.642 264.851,310.448 264.970 C 310.092 265.190,309.546 266.800,309.827 266.800 C 310.221 266.800,311.228 264.269,311.071 263.673 C 310.942 263.186,310.880 263.242,310.846 263.876 M308.612 269.024 C 307.653 271.535,308.088 271.693,309.121 269.209 C 309.580 268.104,309.810 267.200,309.632 267.200 C 309.454 267.200,308.995 268.021,308.612 269.024 M228.501 269.400 C 228.505 270.280,228.587 270.593,228.683 270.095 C 228.779 269.598,228.775 268.878,228.675 268.495 C 228.575 268.113,228.496 268.520,228.501 269.400 M86.812 268.800 C 86.812 269.130,86.987 269.670,87.200 270.000 C 87.545 270.533,87.588 270.533,87.588 270.000 C 87.588 269.670,87.413 269.130,87.200 268.800 C 86.855 268.267,86.812 268.267,86.812 268.800 M306.938 273.500 C 306.581 274.325,306.156 275.360,305.994 275.800 C 305.832 276.240,305.504 277.089,305.265 277.686 C 304.982 278.392,304.968 278.857,305.225 279.015 C 305.442 279.150,305.587 279.111,305.546 278.930 C 305.506 278.748,305.585 278.330,305.722 278.000 C 305.858 277.670,306.419 276.185,306.967 274.700 C 308.033 271.813,308.014 271.013,306.938 273.500 M229.131 274.000 C 229.215 274.880,229.355 275.600,229.442 275.600 C 229.529 275.600,229.600 274.880,229.600 274.000 C 229.600 273.120,229.460 272.400,229.289 272.400 C 229.119 272.400,229.048 273.120,229.131 274.000 M89.660 276.401 C 90.081 277.607,90.800 278.394,90.800 277.647 C 90.800 277.427,90.620 277.136,90.400 277.000 C 90.180 276.864,90.000 276.403,90.000 275.976 C 90.000 275.549,89.829 275.200,89.621 275.200 C 89.391 275.200,89.406 275.672,89.660 276.401 M230.124 279.400 C 230.126 280.720,230.201 281.212,230.290 280.493 C 230.379 279.774,230.377 278.694,230.286 278.093 C 230.195 277.492,230.122 278.080,230.124 279.400 M165.098 281.300 C 164.992 282.015,165.050 282.960,165.227 283.400 C 165.480 284.028,165.555 283.884,165.575 282.733 C 165.589 281.926,165.709 280.981,165.843 280.633 C 165.976 280.285,165.907 280.000,165.688 280.000 C 165.470 280.000,165.204 280.585,165.098 281.300 M230.834 284.600 C 230.822 285.040,230.987 285.670,231.200 286.000 C 231.714 286.795,231.714 285.796,231.200 284.600 L 230.856 283.800 230.834 284.600 M94.900 287.076 C 95.285 287.176,95.915 287.176,96.300 287.076 C 96.685 286.975,96.370 286.893,95.600 286.893 C 94.830 286.893,94.515 286.975,94.900 287.076 M160.500 287.076 C 160.885 287.176,161.515 287.176,161.900 287.076 C 162.285 286.975,161.970 286.893,161.200 286.893 C 160.430 286.893,160.115 286.975,160.500 287.076 M301.200 307.643 C 301.200 309.547,301.542 309.556,301.782 307.660 C 301.869 306.973,301.774 306.307,301.570 306.182 C 301.366 306.055,301.200 306.709,301.200 307.643 M301.504 316.600 C 301.342 317.480,301.207 322.543,301.204 327.851 C 301.200 337.954,301.181 338.064,299.400 338.518 C 298.960 338.629,299.200 338.699,299.933 338.673 C 301.959 338.600,302.022 338.196,301.906 326.114 C 301.846 319.800,301.672 315.691,301.504 316.600 M100.100 338.676 C 100.485 338.776,101.115 338.776,101.500 338.676 C 101.885 338.575,101.570 338.493,100.800 338.493 C 100.030 338.493,99.715 338.575,100.100 338.676 M149.700 338.687 C 150.305 338.778,151.295 338.778,151.900 338.687 C 152.505 338.595,152.010 338.520,150.800 338.520 C 149.590 338.520,149.095 338.595,149.700 338.687 " stroke="none" fill="#c1b48c" fill-rule="evenodd"></path></g></svg>